<?xml version="1.0"?>
<svg xmlns="http://www.w3.org/2000/svg" height="512px" viewBox="-77 1 511 511.999" width="512px" class=""><g><path d="m335.445312 395.84375c-16.015624-9.25-36.097656-6.15625-48.765624 6.332031l-39.808594-22.984375 41.148437-23.757812c12.667969 12.484375 32.75 15.582031 48.765625 6.335937 19.347656-11.171875 25.996094-35.996093 14.828125-55.339843-4.246093-7.355469-10.605469-13.089844-18.152343-16.550782.773437-8.269531-1.011719-16.640625-5.257813-23.996094-4.851563-8.410156-12.390625-14.660156-21.441406-17.882812 8.578125-10.378906 13.75-23.671875 13.75-38.160156v-88.402344c0-26.546875-9.894531-51.75-28.617188-72.890625-18.042969-20.375-42.664062-35.199219-71.203125-42.875-5.332031-1.433594-10.816406 1.726563-12.253906 7.0625-1.433594 5.332031 1.726562 10.816406 7.0625 12.253906 50.847656 13.671875 85.011719 52.433594 85.011719 96.449219v88.402344c0 22.0625-17.949219 40.011718-40.007813 40.011718-5.523437 0-10 4.476563-10 10v19.191407c0 14.195312-9.929687 26.105469-23.207031 29.175781v-10.226562c0-5.523438-4.476563-10-10-10s-10 4.476562-10 10v11h-18.53125v-11c0-5.523438-4.476563-10-10-10s-10 4.476562-10 10v11h-18.53125v-11c0-5.523438-4.476563-10-10-10s-10 4.476562-10 10v10.503906c-13.941406-2.554688-24.546875-14.785156-24.546875-29.453125v-19.191407c0-5.523437-4.476562-10-10-10-22.058594 0-40.007812-17.949218-40.007812-40.011718v-88.402344c0-44.019531 34.167968-82.785156 85.023437-96.457031 5.335937-1.433594 8.496094-6.917969 7.0625-12.25-1.433594-5.335938-6.921875-8.492188-12.253906-7.0625-28.539063 7.671875-53.164063 22.5-71.210938 42.875-18.722656 21.140625-28.621093 46.347656-28.621093 72.894531v88.402344c0 14.671875 5.300781 28.121094 14.074218 38.558594-8.316406 3.21875-15.628906 9.179687-20.425781 17.484374-4.246094 7.351563-6.03125 15.726563-5.257813 23.992188-7.546874 3.464844-13.90625 9.199219-18.152343 16.550781-11.167969 19.347657-4.515625 44.171875 14.828125 55.339844 16.019531 9.25 36.097656 6.152344 48.765625-6.332031l41.148437 23.757812-39.808594 22.984375c-12.667968-12.488281-32.746093-15.582031-48.765624-6.332031-19.34375 11.167969-25.996094 35.992188-14.828126 55.335938 4.246094 7.355468 10.605469 13.085937 18.152344 16.550781-.773437 8.269531 1.011719 16.640625 5.257813 23.996093 5.410156 9.371094 14.144531 16.074219 24.597656 18.875 3.488281.933594 7.03125 1.398438 10.550781 1.398438 7.019532 0 13.949219-1.84375 20.191406-5.445312 16.015626-9.246094 23.375-28.183594 18.894532-45.398438l73.863281-42.644531 73.859375 42.644531c-4.476562 17.214844 2.882812 36.152344 18.898438 45.398438 6.363281 3.675781 13.320312 5.417968 20.1875 5.417968 14.011718 0 27.65625-7.265625 35.152343-20.246094 4.246094-7.355468 6.03125-15.730468 5.253907-23.996093 7.546874-3.464844 13.910156-9.195313 18.152343-16.550781 11.171875-19.34375 4.519531-44.167969-14.824219-55.335938zm-156.679687-55.972656-18.84375-10.878906h37.6875zm-106.675781-6.042969c-4.714844-2.71875-10.738282-1.171875-13.554688 3.480469-5.734375 9.472656-18.199218 12.675781-27.789062 7.136718-9.796875-5.652343-13.164063-18.222656-7.507813-28.019531 3.042969-5.269531 8.234375-8.894531 14.246094-9.945312 2.917969-.511719 5.457031-2.289063 6.9375-4.851563 1.480469-2.566406 1.75-5.652344.730469-8.433594-2.09375-5.730468-1.550782-12.042968 1.492187-17.3125 5.65625-9.796874 18.226563-13.164062 28.019531-7.507812 9.589844 5.535156 13.050782 17.933594 7.714844 27.632812-2.621094 4.769532-.949218 10.757813 3.761719 13.480469l72.625 41.929688-28.105469 16.226562zm15.394531 114.292969c-4.714844 2.722656-6.386719 8.710937-3.761719 13.480468 5.332032 9.699219 1.875 22.097657-7.714844 27.632813-9.796874 5.65625-22.363281 2.289063-28.019531-7.507813-3.042969-5.269531-3.585937-11.582031-1.492187-17.3125 1.015625-2.777343.75-5.867187-.730469-8.433593-1.480469-2.5625-4.019531-4.339844-6.9375-4.851563-6.011719-1.050781-11.207031-4.675781-14.25-9.945312-5.65625-9.796875-2.285156-22.363282 7.507813-28.019532 3.1875-1.84375 6.691406-2.714843 10.164062-2.714843 6.96875 0 13.796875 3.527343 17.625 9.851562 2.820312 4.65625 8.84375 6.203125 13.554688 3.480469l62.140624-35.878906c.011719-.003906.027344-.011719.039063-.019532l135.78125-78.394531c4.710937-2.71875 6.382813-8.710937 3.761719-13.476562-5.335938-9.703125-1.875-22.101563 7.714844-27.636719 9.792968-5.65625 22.363281-2.285156 28.019531 7.507812 3.042969 5.269532 3.585937 11.582032 1.492187 17.3125-1.019531 2.78125-.75 5.867188.730469 8.433594s4.019531 4.339844 6.9375 4.851563c6.011719 1.050781 11.203125 4.675781 14.246094 9.949219 2.742187 4.742187 3.46875 10.269531 2.050781 15.5625-1.417969 5.292968-4.8125 9.714843-9.558594 12.453124-9.585937 5.539063-22.050781 2.335938-27.785156-7.136718-2.820312-4.65625-8.84375-6.199219-13.554688-3.480469l-63.640624 36.742187c-.070313.042969-.144532.082032-.21875.125l-45.789063 26.4375c-1.625.445313-3.136719 1.304688-4.371094 2.523438zm245.46875-6.941406c-3.042969 5.273437-8.234375 8.898437-14.246094 9.949218-2.917969.511719-5.457031 2.289063-6.941406 4.851563-1.476563 2.5625-1.746094 5.652343-.730469 8.433593 2.097656 5.730469 1.554688 12.042969-1.492187 17.3125-5.652344 9.796876-18.222657 13.164063-28.019531 7.507813-9.585938-5.535156-13.046876-17.933594-7.710938-27.636719 2.621094-4.765625.949219-10.757812-3.761719-13.476562l-71.285156-41.15625 28.105469-16.226563 57.230468 33.039063c4.714844 2.722656 10.738282 1.175781 13.554688-3.480469 5.734375-9.46875 18.199219-12.667969 27.789062-7.136719 9.792969 5.65625 13.164063 18.226563 7.507813 28.019532zm0 0" data-original="#000000" class="" data-old_color="#000000" fill="#FFCC00"/><path d="m225.820312 212.335938h14.480469c19.21875 0 34.851563-15.636719 34.851563-34.851563v-16.179687c0-19.21875-15.632813-34.855469-34.851563-34.855469h-14.480469c-19.21875 0-34.855468 15.636719-34.855468 34.855469v16.179687c0 19.214844 15.636718 34.851563 34.855468 34.851563zm-14.855468-51.03125c0-8.191407 6.664062-14.855469 14.855468-14.855469h14.480469c8.1875 0 14.851563 6.664062 14.851563 14.855469v16.179687c0 8.1875-6.664063 14.851563-14.851563 14.851563h-14.480469c-8.191406 0-14.855468-6.664063-14.855468-14.851563zm0 0" data-original="#000000" class="" data-old_color="#000000" fill="#FFCC00"/><path d="m115.890625 126.449219c-19.21875 0-34.851563 15.636719-34.851563 34.851562v16.179688c0 19.21875 15.632813 34.855469 34.851563 34.855469h14.480469c19.21875 0 34.855468-15.636719 34.855468-34.855469v-16.179688c0-19.21875-15.636718-34.851562-34.855468-34.851562zm29.335937 34.855469v16.179687c0 8.1875-6.664062 14.851563-14.855468 14.851563h-14.480469c-8.1875 0-14.851563-6.664063-14.851563-14.851563v-16.179687c0-8.191407 6.664063-14.855469 14.851563-14.855469h14.480469c8.191406 0 14.855468 6.664062 14.855468 14.855469zm0 0" data-original="#000000" class="" data-old_color="#000000" fill="#FFCC00"/><path d="m178.097656 222.679688c-3.574218 0-6.875 1.90625-8.660156 5l-10.199219 17.660156c-2.761719 4.78125-1.121093 10.898437 3.660157 13.660156 4.785156 2.761719 10.902343 1.121094 13.660156-3.660156l1.539062-2.660156 1.535156 2.660156c1.851563 3.207031 5.210938 5 8.667969 5 1.695313 0 3.414063-.429688 4.992188-1.339844 4.78125-2.761719 6.421875-8.878906 3.660156-13.660156l-10.199219-17.660156c-1.785156-3.09375-5.085937-5-8.65625-5zm0 0" data-original="#000000" class="" data-old_color="#000000" fill="#FFCC00"/><path d="m178.097656 20c2.628906 0 5.207032-1.070312 7.066406-2.929688 1.863282-1.859374 2.929688-4.441406 2.929688-7.070312s-1.066406-5.210938-2.929688-7.070312c-1.859374-1.859376-4.4375-2.929688-7.066406-2.929688-2.632812 0-5.210937 1.070312-7.070312 2.929688-1.863282 1.859374-2.929688 4.441406-2.929688 7.070312s1.066406 5.210938 2.929688 7.070312c1.859375 1.859376 4.4375 2.929688 7.070312 2.929688zm0 0" data-original="#000000" class="" data-old_color="#000000" fill="#FFCC00"/></g> </svg>
