<svg xmlns="http://www.w3.org/2000/svg" width="566.215" height="443.935" viewBox="0 0 566.215 443.935"><g transform="translate(45.392 -18.497)"><g transform="translate(-45.392 18.497)"><g transform="translate(0 89.415)"><g transform="translate(0 0)"><path d="M402.9-18.152l-234.3,135.271L500.523,308.752l234.3-135.27Z" transform="translate(-168.605 18.152)" fill="#93db64"/><path d="M-86.065,85.968v27.614L245.851,305.214l-.01-27.619Z" transform="translate(86.074 49.306)" fill="#71c837"/><path d="M322.873,115.622,88.577,250.891v27.614l234.3-135.272Z" transform="translate(243.338 76.01)" fill="#459113"/></g></g><g transform="translate(200.048)"><g transform="translate(0 0)"><path d="M396.294-57.221V18.8l16.459-9.5V-47.718Z" transform="translate(-363.375 123.738)" fill="#d0e6f1"/><path d="M382.265-65.32V44.908l-3.292,1.9V-67.221Z" transform="translate(-378.973 114.733)" fill="#d0e6f1"/><path d="M378.973,8.538,601.165,136.821l57.606-33.259L436.579-24.721Z" transform="translate(-378.973 153.004)" fill="#fdfffb"/><g transform="translate(241.248 249.693)"><path d="M438.93-54.54v7.6l4.938,2.851v-7.6Z" transform="translate(-438.509 58.487)" fill="#c9daf0"/><path d="M446.466-54.54l-4.938,2.875v7.579l4.938-2.851v-7.6Z" transform="translate(-436.17 58.487)" fill="#f3f0ef"/><path d="M438.93-51.427s1.646-.95,4.938.95v3.8l-4.938-2.851Z" transform="translate(-438.509 61.077)" fill="#63b0fa"/><rect width="3.292" height="1.9" rx="0.5" transform="matrix(0.904, 0.427, -0.427, 0.904, 1.689, 6.343)" fill="#63b0fa"/><g transform="translate(0 0)"><path d="M134.663-60.894l5.36-3.094,5.36,3.094-5.36,3.094Z" transform="translate(-134.663 64.609)" fill="#63b0fa"/><path d="M134.663-61.22l5.36-3.094,5.36,3.094-5.36,3.094Z" transform="translate(-134.663 64.315)" fill="#63b0fa"/><path d="M134.663-62.687l5.36,3.094v.851l-5.36-3.155Z" transform="translate(-134.663 65.781)" fill="#477fa5"/><path d="M137.483-59.592l5.36-3.094v.7l-5.36,3.214Z" transform="translate(-132.123 65.781)" fill="#477fa5"/></g></g><g transform="translate(225.748 241.049)"><path d="M298.114-68.377v7.6l4.938,2.851v-7.6Z" transform="translate(-297.694 72.324)" fill="#f4f8df"/><path d="M305.651-68.377,300.713-65.5v7.579l4.938-2.851v-7.6Z" transform="translate(-295.354 72.324)" fill="#d0c4c0"/><path d="M298.114-65.264s1.646-.95,4.938.95v3.8l-4.938-2.851Z" transform="translate(-297.694 74.913)" fill="#bad340"/><rect width="3.292" height="1.9" rx="0.5" transform="matrix(0.904, 0.427, -0.427, 0.904, 1.69, 6.344)" fill="#bad340"/><g transform="translate(0 0)"><path d="M134.663-60.894l5.36-3.094,5.36,3.094-5.36,3.094Z" transform="translate(-134.663 64.609)" fill="#bad340"/><path d="M134.663-61.22l5.36-3.094,5.36,3.094-5.36,3.094Z" transform="translate(-134.663 64.315)" fill="#bad340"/><path d="M134.663-62.687l5.36,3.094v.851l-5.36-3.155Z" transform="translate(-134.663 65.781)" fill="#849823"/><path d="M137.483-59.592l5.36-3.094v.7l-5.36,3.214Z" transform="translate(-132.123 65.781)" fill="#849823"/></g></g><g transform="translate(232.981 255.382)"><path d="M438.93-54.54v7.6l4.938,2.851v-7.6Z" transform="translate(-438.509 58.487)" fill="#c9daf0"/><path d="M446.466-54.54l-4.938,2.875v7.579l4.938-2.851v-7.6Z" transform="translate(-436.17 58.487)" fill="#f3f0ef"/><path d="M438.93-51.427s1.646-.95,4.938.95v3.8l-4.938-2.851Z" transform="translate(-438.509 61.077)" fill="#63b0fa"/><rect width="3.292" height="1.9" rx="0.5" transform="matrix(0.904, 0.427, -0.427, 0.904, 1.689, 6.343)" fill="#63b0fa"/><g transform="translate(0 0)"><path d="M134.663-60.894l5.36-3.094,5.36,3.094-5.36,3.094Z" transform="translate(-134.663 64.609)" fill="#63b0fa"/><path d="M134.663-61.22l5.36-3.094,5.36,3.094-5.36,3.094Z" transform="translate(-134.663 64.315)" fill="#63b0fa"/><path d="M134.663-62.687l5.36,3.094v.851l-5.36-3.155Z" transform="translate(-134.663 65.781)" fill="#477fa5"/><path d="M137.483-59.592l5.36-3.094v.7l-5.36,3.214Z" transform="translate(-132.123 65.781)" fill="#477fa5"/></g></g><g transform="translate(209.171 231.427)"><path d="M248.575-107.2v7.6l4.938,2.851v-7.6Z" transform="translate(-248.155 111.148)" fill="#f4f8df"/><path d="M256.112-107.2l-4.938,2.875v7.579l4.938-2.851v-7.6Z" transform="translate(-245.815 111.148)" fill="#d0c4c0"/><path d="M248.575-104.087s1.646-.95,4.938.95v3.8l-4.938-2.851Z" transform="translate(-248.155 113.738)" fill="#fcd432"/><rect width="3.292" height="1.9" rx="0.5" transform="matrix(0.904, 0.427, -0.427, 0.904, 1.69, 6.343)" fill="#fcd432"/><g transform="translate(0 0)"><path d="M134.663-60.894l5.36-3.094,5.36,3.094-5.36,3.094Z" transform="translate(-134.663 64.609)" fill="#fcd432"/><path d="M134.663-61.22l5.36-3.094,5.36,3.094-5.36,3.094Z" transform="translate(-134.663 64.315)" fill="#fcd432"/><path d="M134.663-62.687l5.36,3.094v.851l-5.36-3.155Z" transform="translate(-134.663 65.781)" fill="#ddb203"/><path d="M137.483-59.592l5.36-3.094v.7l-5.36,3.214Z" transform="translate(-132.123 65.781)" fill="#ddb203"/></g></g><g transform="translate(216.859 246.027)"><path d="M298.114-68.377v7.6l4.938,2.851v-7.6Z" transform="translate(-297.694 72.324)" fill="#f4f8df"/><path d="M305.651-68.377,300.713-65.5v7.579l4.938-2.851v-7.6Z" transform="translate(-295.354 72.324)" fill="#d0c4c0"/><path d="M298.114-65.264s1.646-.95,4.938.95v3.8l-4.938-2.851Z" transform="translate(-297.694 74.913)" fill="#bad340"/><rect width="3.292" height="1.9" rx="0.5" transform="matrix(0.904, 0.427, -0.427, 0.904, 1.69, 6.344)" fill="#bad340"/><g transform="translate(0 0)"><path d="M134.663-60.894l5.36-3.094,5.36,3.094-5.36,3.094Z" transform="translate(-134.663 64.609)" fill="#bad340"/><path d="M134.663-61.22l5.36-3.094,5.36,3.094-5.36,3.094Z" transform="translate(-134.663 64.315)" fill="#bad340"/><path d="M134.663-62.687l5.36,3.094v.851l-5.36-3.155Z" transform="translate(-134.663 65.781)" fill="#849823"/><path d="M137.483-59.592l5.36-3.094v.7l-5.36,3.214Z" transform="translate(-132.123 65.781)" fill="#849823"/></g></g><g transform="translate(225.159 260.093)"><path d="M438.93-54.54v7.6l4.938,2.851v-7.6Z" transform="translate(-438.509 58.487)" fill="#c9daf0"/><path d="M446.466-54.54l-4.938,2.875v7.579l4.938-2.851v-7.6Z" transform="translate(-436.17 58.487)" fill="#f3f0ef"/><path d="M438.93-51.427s1.646-.95,4.938.95v3.8l-4.938-2.851Z" transform="translate(-438.509 61.077)" fill="#63b0fa"/><rect width="3.292" height="1.9" rx="0.5" transform="matrix(0.904, 0.427, -0.427, 0.904, 1.689, 6.343)" fill="#63b0fa"/><g transform="translate(0 0)"><path d="M134.663-60.894l5.36-3.094,5.36,3.094-5.36,3.094Z" transform="translate(-134.663 64.609)" fill="#63b0fa"/><path d="M134.663-61.22l5.36-3.094,5.36,3.094-5.36,3.094Z" transform="translate(-134.663 64.315)" fill="#63b0fa"/><path d="M134.663-62.687l5.36,3.094v.851l-5.36-3.155Z" transform="translate(-134.663 65.781)" fill="#477fa5"/><path d="M137.483-59.592l5.36-3.094v.7l-5.36,3.214Z" transform="translate(-132.123 65.781)" fill="#477fa5"/></g></g><path d="M378.973-72.221V89.321L601.165,217.6V56.062Z" transform="translate(-378.973 110.231)" fill="none"/><g transform="translate(216.092 264.715)"><path d="M438.93-54.54v7.6l4.938,2.851v-7.6Z" transform="translate(-438.509 58.487)" fill="#c9daf0"/><path d="M446.466-54.54l-4.938,2.875v7.579l4.938-2.851v-7.6Z" transform="translate(-436.17 58.487)" fill="#f3f0ef"/><path d="M438.93-51.427s1.646-.95,4.938.95v3.8l-4.938-2.851Z" transform="translate(-438.509 61.077)" fill="#63b0fa"/><rect width="3.292" height="1.9" rx="0.5" transform="matrix(0.904, 0.427, -0.427, 0.904, 1.689, 6.343)" fill="#63b0fa"/><g transform="translate(0 0)"><path d="M134.663-60.894l5.36-3.094,5.36,3.094-5.36,3.094Z" transform="translate(-134.663 64.609)" fill="#63b0fa"/><path d="M134.663-61.22l5.36-3.094,5.36,3.094-5.36,3.094Z" transform="translate(-134.663 64.315)" fill="#63b0fa"/><path d="M134.663-62.687l5.36,3.094v.851l-5.36-3.155Z" transform="translate(-134.663 65.781)" fill="#477fa5"/><path d="M137.483-59.592l5.36-3.094v.7l-5.36,3.214Z" transform="translate(-132.123 65.781)" fill="#477fa5"/></g></g><g transform="translate(208.859 250.827)"><path d="M298.114-68.377v7.6l4.938,2.851v-7.6Z" transform="translate(-297.694 72.324)" fill="#f4f8df"/><path d="M305.651-68.377,300.713-65.5v7.579l4.938-2.851v-7.6Z" transform="translate(-295.354 72.324)" fill="#d0c4c0"/><path d="M298.114-65.264s1.646-.95,4.938.95v3.8l-4.938-2.851Z" transform="translate(-297.694 74.913)" fill="#bad340"/><rect width="3.292" height="1.9" rx="0.5" transform="matrix(0.904, 0.427, -0.427, 0.904, 1.69, 6.344)" fill="#bad340"/><g transform="translate(0 0)"><path d="M134.663-60.894l5.36-3.094,5.36,3.094-5.36,3.094Z" transform="translate(-134.663 64.609)" fill="#bad340"/><path d="M134.663-61.22l5.36-3.094,5.36,3.094-5.36,3.094Z" transform="translate(-134.663 64.315)" fill="#bad340"/><path d="M134.663-62.687l5.36,3.094v.851l-5.36-3.155Z" transform="translate(-134.663 65.781)" fill="#849823"/><path d="M137.483-59.592l5.36-3.094v.7l-5.36,3.214Z" transform="translate(-132.123 65.781)" fill="#849823"/></g></g><g transform="translate(201.063 236.078)"><path d="M248.575-107.2v7.6l4.938,2.851v-7.6Z" transform="translate(-248.155 111.148)" fill="#f4f8df"/><path d="M256.112-107.2l-4.938,2.875v7.579l4.938-2.851v-7.6Z" transform="translate(-245.815 111.148)" fill="#d0c4c0"/><path d="M248.575-104.087s1.646-.95,4.938.95v3.8l-4.938-2.851Z" transform="translate(-248.155 113.738)" fill="#fcd432"/><rect width="3.292" height="1.9" rx="0.5" transform="matrix(0.904, 0.427, -0.427, 0.904, 1.69, 6.343)" fill="#fcd432"/><g transform="translate(0 0)"><path d="M134.663-60.894l5.36-3.094,5.36,3.094-5.36,3.094Z" transform="translate(-134.663 64.609)" fill="#fcd432"/><path d="M134.663-61.22l5.36-3.094,5.36,3.094-5.36,3.094Z" transform="translate(-134.663 64.315)" fill="#fcd432"/><path d="M134.663-62.687l5.36,3.094v.851l-5.36-3.155Z" transform="translate(-134.663 65.781)" fill="#ddb203"/><path d="M137.483-59.592l5.36-3.094v.7l-5.36,3.214Z" transform="translate(-132.123 65.781)" fill="#ddb203"/></g></g><g transform="translate(200.592 255.449)"><path d="M298.114-68.377v7.6l4.938,2.851v-7.6Z" transform="translate(-297.694 72.324)" fill="#f4f8df"/><path d="M305.651-68.377,300.713-65.5v7.579l4.938-2.851v-7.6Z" transform="translate(-295.354 72.324)" fill="#d0c4c0"/><path d="M298.114-65.264s1.646-.95,4.938.95v3.8l-4.938-2.851Z" transform="translate(-297.694 74.913)" fill="#bad340"/><rect width="3.292" height="1.9" rx="0.5" transform="matrix(0.904, 0.427, -0.427, 0.904, 1.69, 6.344)" fill="#bad340"/><g transform="translate(0 0)"><path d="M134.663-60.894l5.36-3.094,5.36,3.094-5.36,3.094Z" transform="translate(-134.663 64.609)" fill="#bad340"/><path d="M134.663-61.22l5.36-3.094,5.36,3.094-5.36,3.094Z" transform="translate(-134.663 64.315)" fill="#bad340"/><path d="M134.663-62.687l5.36,3.094v.851l-5.36-3.155Z" transform="translate(-134.663 65.781)" fill="#849823"/><path d="M137.483-59.592l5.36-3.094v.7l-5.36,3.214Z" transform="translate(-132.123 65.781)" fill="#849823"/></g></g><g transform="translate(18.64 108.219)"><g transform="translate(0 9.778)"><g transform="translate(0.03)"><path d="M382.5-393.464a3.178,3.178,0,0,0-1.843.444s-.027.145-.03.154l-.011-.051a3.849,3.849,0,0,0-2.495-.442v7.065s.5,3.606-1.8,5a3.3,3.3,0,0,0-1.8,3.459v24.8s-.6,3.974,6.986,3.312a2.075,2.075,0,0,0,.263-.047c5.429-.162,4.965-3.368,4.965-3.368v-24.8a3.3,3.3,0,0,0-1.8-3.459c-2.3-1.4-1.8-5-1.8-5v-7.065c-.237-.009-.454-.009-.652,0Z" transform="translate(-374.481 397.254)" fill="#c7c34f"/><g transform="translate(3.515 0)"><path d="M65.849-64.085a4.66,4.66,0,0,0-1.833.4s-.7.346-.8.822h0v0a.532.532,0,0,0,0,.207v2.1a.532.532,0,0,0,0,.207v.006h0c.05.238.27.5.795.757a4.428,4.428,0,0,0,3.632,0s.635-.314.778-.757h0a.541.541,0,0,0,0-.341v-1.964a.541.541,0,0,0,0-.341v0h0c-.074-.22-.3-.457-.777-.694a3.922,3.922,0,0,0-1.8-.4Z" transform="translate(-63.21 64.087)" fill="#d7c147"/><path d="M64.017-63.687a4.428,4.428,0,0,1,3.632,0c1.816.9,0,1.8,0,1.8a4.428,4.428,0,0,1-3.632,0C62.2-62.789,64.017-63.687,64.017-63.687Z" transform="translate(-63.209 64.086)" fill="#fae46f"/></g></g><g transform="translate(0 26.479)"><path d="M324.313-348.9s7.811,3.091,12.292-.7v9.42s-4,3.4-12.118.568Z" transform="translate(-324.313 349.609)" fill="#d7c147"/></g><path d="M341.514-141.95l-.116,9.239s-5.939.246-8.211-.9v-9.325s5.559,1.94,8.327.99Z" transform="translate(-333.109 170.153)" fill="#fae46f"/><rect width="2.711" height="9.652" rx="0.713" transform="translate(2.362 16.725)" fill="#fae46f" opacity="0.41"/></g><g transform="translate(17.6 0)"><g transform="translate(0.03)"><path d="M382.5-393.464a3.178,3.178,0,0,0-1.843.444s-.027.145-.03.154l-.011-.051a3.849,3.849,0,0,0-2.495-.442v7.065s.5,3.606-1.8,5a3.3,3.3,0,0,0-1.8,3.459v24.8s-.6,3.974,6.986,3.312a2.075,2.075,0,0,0,.263-.047c5.429-.162,4.965-3.368,4.965-3.368v-24.8a3.3,3.3,0,0,0-1.8-3.459c-2.3-1.4-1.8-5-1.8-5v-7.065c-.237-.009-.454-.009-.652,0Z" transform="translate(-374.481 397.254)" fill="#c7c34f"/><g transform="translate(3.515 0)"><path d="M65.849-64.085a4.66,4.66,0,0,0-1.833.4s-.7.346-.8.822h0v0a.532.532,0,0,0,0,.207v2.1a.532.532,0,0,0,0,.207v.006h0c.05.238.27.5.795.757a4.428,4.428,0,0,0,3.632,0s.635-.314.778-.757h0a.541.541,0,0,0,0-.341v-1.964a.541.541,0,0,0,0-.341v0h0c-.074-.22-.3-.457-.777-.694a3.922,3.922,0,0,0-1.8-.4Z" transform="translate(-63.21 64.087)" fill="#d7c147"/><path d="M64.017-63.687a4.428,4.428,0,0,1,3.632,0c1.816.9,0,1.8,0,1.8a4.428,4.428,0,0,1-3.632,0C62.2-62.789,64.017-63.687,64.017-63.687Z" transform="translate(-63.209 64.086)" fill="#fae46f"/></g></g><g transform="translate(0 26.479)"><path d="M324.313-348.9s7.811,3.091,12.292-.7v9.42s-4,3.4-12.118.568Z" transform="translate(-324.313 349.609)" fill="#d7c147"/></g><path d="M341.514-141.95l-.116,9.239s-5.939.246-8.211-.9v-9.325s5.559,1.94,8.327.99Z" transform="translate(-333.109 170.153)" fill="#fae46f"/><rect width="2.711" height="9.652" rx="0.713" transform="translate(2.362 16.725)" fill="#fae46f" opacity="0.41"/></g><g transform="translate(15.645 19.022)"><g transform="translate(0.03)"><path d="M382.5-393.464a3.178,3.178,0,0,0-1.843.444s-.027.145-.03.154l-.011-.051a3.849,3.849,0,0,0-2.495-.442v7.065s.5,3.606-1.8,5a3.3,3.3,0,0,0-1.8,3.459v24.8s-.6,3.974,6.986,3.312a2.075,2.075,0,0,0,.263-.047c5.429-.162,4.965-3.368,4.965-3.368v-24.8a3.3,3.3,0,0,0-1.8-3.459c-2.3-1.4-1.8-5-1.8-5v-7.065c-.237-.009-.454-.009-.652,0Z" transform="translate(-374.481 397.254)" fill="#c7c34f"/><g transform="translate(3.515 0)"><path d="M65.849-64.085a4.66,4.66,0,0,0-1.833.4s-.7.346-.8.822h0v0a.532.532,0,0,0,0,.207v2.1a.532.532,0,0,0,0,.207v.006h0c.05.238.27.5.795.757a4.428,4.428,0,0,0,3.632,0s.635-.314.778-.757h0a.541.541,0,0,0,0-.341v-1.964a.541.541,0,0,0,0-.341v0h0c-.074-.22-.3-.457-.777-.694a3.922,3.922,0,0,0-1.8-.4Z" transform="translate(-63.21 64.087)" fill="#d7c147"/><path d="M64.017-63.687a4.428,4.428,0,0,1,3.632,0c1.816.9,0,1.8,0,1.8a4.428,4.428,0,0,1-3.632,0C62.2-62.789,64.017-63.687,64.017-63.687Z" transform="translate(-63.209 64.086)" fill="#fae46f"/></g></g><g transform="translate(0 26.479)"><path d="M324.313-348.9s7.811,3.091,12.292-.7v9.42s-4,3.4-12.118.568Z" transform="translate(-324.313 349.609)" fill="#d7c147"/></g><path d="M341.514-141.95l-.116,9.239s-5.939.246-8.211-.9v-9.325s5.559,1.94,8.327.99Z" transform="translate(-333.109 170.153)" fill="#fae46f"/><rect width="2.711" height="9.652" rx="0.713" transform="translate(2.362 16.725)" fill="#fae46f" opacity="0.41"/></g><g transform="translate(33.245 9.245)"><g transform="translate(0.03)"><path d="M382.5-393.464a3.178,3.178,0,0,0-1.843.444s-.027.145-.03.154l-.011-.051a3.849,3.849,0,0,0-2.495-.442v7.065s.5,3.606-1.8,5a3.3,3.3,0,0,0-1.8,3.459v24.8s-.6,3.974,6.986,3.312a2.075,2.075,0,0,0,.263-.047c5.429-.162,4.965-3.368,4.965-3.368v-24.8a3.3,3.3,0,0,0-1.8-3.459c-2.3-1.4-1.8-5-1.8-5v-7.065c-.237-.009-.454-.009-.652,0Z" transform="translate(-374.481 397.254)" fill="#c7c34f"/><g transform="translate(3.515 0)"><path d="M65.849-64.085a4.66,4.66,0,0,0-1.833.4s-.7.346-.8.822h0v0a.532.532,0,0,0,0,.207v2.1a.532.532,0,0,0,0,.207v.006h0c.05.238.27.5.795.757a4.428,4.428,0,0,0,3.632,0s.635-.314.778-.757h0a.541.541,0,0,0,0-.341v-1.964a.541.541,0,0,0,0-.341v0h0c-.074-.22-.3-.457-.777-.694a3.922,3.922,0,0,0-1.8-.4Z" transform="translate(-63.21 64.087)" fill="#d7c147"/><path d="M64.017-63.687a4.428,4.428,0,0,1,3.632,0c1.816.9,0,1.8,0,1.8a4.428,4.428,0,0,1-3.632,0C62.2-62.789,64.017-63.687,64.017-63.687Z" transform="translate(-63.209 64.086)" fill="#fae46f"/></g></g><g transform="translate(0 26.479)"><path d="M324.313-348.9s7.811,3.091,12.292-.7v9.42s-4,3.4-12.118.568Z" transform="translate(-324.313 349.609)" fill="#d7c147"/></g><path d="M341.514-141.95l-.116,9.239s-5.939.246-8.211-.9v-9.325s5.559,1.94,8.327.99Z" transform="translate(-333.109 170.153)" fill="#fae46f"/><rect width="2.711" height="9.652" rx="0.713" transform="translate(2.362 16.725)" fill="#fae46f" opacity="0.41"/></g><g transform="translate(34.134 28.623)"><g transform="translate(0.03)"><path d="M382.5-393.464a3.178,3.178,0,0,0-1.843.444s-.027.145-.03.154l-.011-.051a3.849,3.849,0,0,0-2.495-.442v7.065s.5,3.606-1.8,5a3.3,3.3,0,0,0-1.8,3.459v24.8s-.6,3.974,6.986,3.312a2.075,2.075,0,0,0,.263-.047c5.429-.162,4.965-3.368,4.965-3.368v-24.8a3.3,3.3,0,0,0-1.8-3.459c-2.3-1.4-1.8-5-1.8-5v-7.065c-.237-.009-.454-.009-.652,0Z" transform="translate(-374.481 397.254)" fill="#c7c34f"/><g transform="translate(3.515 0)"><path d="M65.849-64.085a4.66,4.66,0,0,0-1.833.4s-.7.346-.8.822h0v0a.532.532,0,0,0,0,.207v2.1a.532.532,0,0,0,0,.207v.006h0c.05.238.27.5.795.757a4.428,4.428,0,0,0,3.632,0s.635-.314.778-.757h0a.541.541,0,0,0,0-.341v-1.964a.541.541,0,0,0,0-.341v0h0c-.074-.22-.3-.457-.777-.694a3.922,3.922,0,0,0-1.8-.4Z" transform="translate(-63.21 64.087)" fill="#d7c147"/><path d="M64.017-63.687a4.428,4.428,0,0,1,3.632,0c1.816.9,0,1.8,0,1.8a4.428,4.428,0,0,1-3.632,0C62.2-62.789,64.017-63.687,64.017-63.687Z" transform="translate(-63.209 64.086)" fill="#fae46f"/></g></g><g transform="translate(0 26.479)"><path d="M324.313-348.9s7.811,3.091,12.292-.7v9.42s-4,3.4-12.118.568Z" transform="translate(-324.313 349.609)" fill="#d7c147"/></g><path d="M341.514-141.95l-.116,9.239s-5.939.246-8.211-.9v-9.325s5.559,1.94,8.327.99Z" transform="translate(-333.109 170.153)" fill="#fae46f"/><rect width="2.711" height="9.652" rx="0.713" transform="translate(2.362 16.725)" fill="#fae46f" opacity="0.41"/></g><g transform="translate(51.734 18.845)"><g transform="translate(0.03)"><path d="M382.5-393.464a3.178,3.178,0,0,0-1.843.444s-.027.145-.03.154l-.011-.051a3.849,3.849,0,0,0-2.495-.442v7.065s.5,3.606-1.8,5a3.3,3.3,0,0,0-1.8,3.459v24.8s-.6,3.974,6.986,3.312a2.075,2.075,0,0,0,.263-.047c5.429-.162,4.965-3.368,4.965-3.368v-24.8a3.3,3.3,0,0,0-1.8-3.459c-2.3-1.4-1.8-5-1.8-5v-7.065c-.237-.009-.454-.009-.652,0Z" transform="translate(-374.481 397.254)" fill="#c7c34f"/><g transform="translate(3.515 0)"><path d="M65.849-64.085a4.66,4.66,0,0,0-1.833.4s-.7.346-.8.822h0v0a.532.532,0,0,0,0,.207v2.1a.532.532,0,0,0,0,.207v.006h0c.05.238.27.5.795.757a4.428,4.428,0,0,0,3.632,0s.635-.314.778-.757h0a.541.541,0,0,0,0-.341v-1.964a.541.541,0,0,0,0-.341v0h0c-.074-.22-.3-.457-.777-.694a3.922,3.922,0,0,0-1.8-.4Z" transform="translate(-63.21 64.087)" fill="#d7c147"/><path d="M64.017-63.687a4.428,4.428,0,0,1,3.632,0c1.816.9,0,1.8,0,1.8a4.428,4.428,0,0,1-3.632,0C62.2-62.789,64.017-63.687,64.017-63.687Z" transform="translate(-63.209 64.086)" fill="#fae46f"/></g></g><g transform="translate(0 26.479)"><path d="M324.313-348.9s7.811,3.091,12.292-.7v9.42s-4,3.4-12.118.568Z" transform="translate(-324.313 349.609)" fill="#d7c147"/></g><path d="M341.514-141.95l-.116,9.239s-5.939.246-8.211-.9v-9.325s5.559,1.94,8.327.99Z" transform="translate(-333.109 170.153)" fill="#fae46f"/><rect width="2.711" height="9.652" rx="0.713" transform="translate(2.362 16.725)" fill="#fae46f" opacity="0.41"/></g><g transform="translate(49.779 37.867)"><g transform="translate(0.03)"><path d="M382.5-393.464a3.178,3.178,0,0,0-1.843.444s-.027.145-.03.154l-.011-.051a3.849,3.849,0,0,0-2.495-.442v7.065s.5,3.606-1.8,5a3.3,3.3,0,0,0-1.8,3.459v24.8s-.6,3.974,6.986,3.312a2.075,2.075,0,0,0,.263-.047c5.429-.162,4.965-3.368,4.965-3.368v-24.8a3.3,3.3,0,0,0-1.8-3.459c-2.3-1.4-1.8-5-1.8-5v-7.065c-.237-.009-.454-.009-.652,0Z" transform="translate(-374.481 397.254)" fill="#c7c34f"/><g transform="translate(3.515 0)"><path d="M65.849-64.085a4.66,4.66,0,0,0-1.833.4s-.7.346-.8.822h0v0a.532.532,0,0,0,0,.207v2.1a.532.532,0,0,0,0,.207v.006h0c.05.238.27.5.795.757a4.428,4.428,0,0,0,3.632,0s.635-.314.778-.757h0a.541.541,0,0,0,0-.341v-1.964a.541.541,0,0,0,0-.341v0h0c-.074-.22-.3-.457-.777-.694a3.922,3.922,0,0,0-1.8-.4Z" transform="translate(-63.21 64.087)" fill="#d7c147"/><path d="M64.017-63.687a4.428,4.428,0,0,1,3.632,0c1.816.9,0,1.8,0,1.8a4.428,4.428,0,0,1-3.632,0C62.2-62.789,64.017-63.687,64.017-63.687Z" transform="translate(-63.209 64.086)" fill="#fae46f"/></g></g><g transform="translate(0 26.479)"><path d="M324.313-348.9s7.811,3.091,12.292-.7v9.42s-4,3.4-12.118.568Z" transform="translate(-324.313 349.609)" fill="#d7c147"/></g><path d="M341.514-141.95l-.116,9.239s-5.939.246-8.211-.9v-9.325s5.559,1.94,8.327.99Z" transform="translate(-333.109 170.153)" fill="#fae46f"/><rect width="2.711" height="9.652" rx="0.713" transform="translate(2.362 16.725)" fill="#fae46f" opacity="0.41"/></g><g transform="translate(67.379 28.089)"><g transform="translate(0.03)"><path d="M382.5-393.464a3.178,3.178,0,0,0-1.843.444s-.027.145-.03.154l-.011-.051a3.849,3.849,0,0,0-2.495-.442v7.065s.5,3.606-1.8,5a3.3,3.3,0,0,0-1.8,3.459v24.8s-.6,3.974,6.986,3.312a2.075,2.075,0,0,0,.263-.047c5.429-.162,4.965-3.368,4.965-3.368v-24.8a3.3,3.3,0,0,0-1.8-3.459c-2.3-1.4-1.8-5-1.8-5v-7.065c-.237-.009-.454-.009-.652,0Z" transform="translate(-374.481 397.254)" fill="#c7c34f"/><g transform="translate(3.515 0)"><path d="M65.849-64.085a4.66,4.66,0,0,0-1.833.4s-.7.346-.8.822h0v0a.532.532,0,0,0,0,.207v2.1a.532.532,0,0,0,0,.207v.006h0c.05.238.27.5.795.757a4.428,4.428,0,0,0,3.632,0s.635-.314.778-.757h0a.541.541,0,0,0,0-.341v-1.964a.541.541,0,0,0,0-.341v0h0c-.074-.22-.3-.457-.777-.694a3.922,3.922,0,0,0-1.8-.4Z" transform="translate(-63.21 64.087)" fill="#d7c147"/><path d="M64.017-63.687a4.428,4.428,0,0,1,3.632,0c1.816.9,0,1.8,0,1.8a4.428,4.428,0,0,1-3.632,0C62.2-62.789,64.017-63.687,64.017-63.687Z" transform="translate(-63.209 64.086)" fill="#fae46f"/></g></g><g transform="translate(0 26.479)"><path d="M324.313-348.9s7.811,3.091,12.292-.7v9.42s-4,3.4-12.118.568Z" transform="translate(-324.313 349.609)" fill="#d7c147"/></g><path d="M341.514-141.95l-.116,9.239s-5.939.246-8.211-.9v-9.325s5.559,1.94,8.327.99Z" transform="translate(-333.109 170.153)" fill="#fae46f"/><rect width="2.711" height="9.652" rx="0.713" transform="translate(2.362 16.725)" fill="#fae46f" opacity="0.41"/></g></g><g transform="translate(83.838 161.432)"><g transform="translate(0 8.711)"><path d="M420.864-143.549v19.893l7.383,4.263v-19.893Z" transform="translate(-420.864 154.052)" fill="#b3d64e"/><path d="M428.247-135.247l4.922-8.525-7.383-4.263-4.922,8.525Z" transform="translate(-420.864 150.013)" fill="#f1f3f6"/><path d="M423.454-147.1v-1.978l7.383,4.263v1.978Z" transform="translate(-418.532 149.075)" fill="#eaecf6"/><path d="M429.671-145.792l-4.922,8.525v19.893l9.844-5.684V-142.95Z" transform="translate(-417.366 152.032)" fill="#c4c4cc"/><path d="M421.419-141.733v14.209l5.274,3.045v-14.209Z" transform="translate(-420.364 155.687)" fill="#d7d7dc"/></g><g transform="translate(16.534 0)"><path d="M420.864-143.549v19.893l7.383,4.263v-19.893Z" transform="translate(-420.864 154.052)" fill="#b3d64e"/><path d="M428.247-135.247l4.922-8.525-7.383-4.263-4.922,8.525Z" transform="translate(-420.864 150.013)" fill="#f1f3f6"/><path d="M423.454-147.1v-1.978l7.383,4.263v1.978Z" transform="translate(-418.532 149.075)" fill="#eaecf6"/><path d="M429.671-145.792l-4.922,8.525v19.893l9.844-5.684V-142.95Z" transform="translate(-417.366 152.032)" fill="#c4c4cc"/><path d="M421.419-141.733v14.209l5.274,3.045v-14.209Z" transform="translate(-420.364 155.687)" fill="#d7d7dc"/></g><g transform="translate(16.889 19.022)"><path d="M420.864-143.549v19.893l7.383,4.263v-19.893Z" transform="translate(-420.864 154.052)" fill="#b3d64e"/><path d="M428.247-135.247l4.922-8.525-7.383-4.263-4.922,8.525Z" transform="translate(-420.864 150.013)" fill="#f1f3f6"/><path d="M423.454-147.1v-1.978l7.383,4.263v1.978Z" transform="translate(-418.532 149.075)" fill="#eaecf6"/><path d="M429.671-145.792l-4.922,8.525v19.893l9.844-5.684V-142.95Z" transform="translate(-417.366 152.032)" fill="#c4c4cc"/><path d="M421.419-141.733v14.209l5.274,3.045v-14.209Z" transform="translate(-420.364 155.687)" fill="#d7d7dc"/></g><g transform="translate(33.423 10.311)"><path d="M420.864-143.549v19.893l7.383,4.263v-19.893Z" transform="translate(-420.864 154.052)" fill="#b3d64e"/><path d="M428.247-135.247l4.922-8.525-7.383-4.263-4.922,8.525Z" transform="translate(-420.864 150.013)" fill="#f1f3f6"/><path d="M423.454-147.1v-1.978l7.383,4.263v1.978Z" transform="translate(-418.532 149.075)" fill="#eaecf6"/><path d="M429.671-145.792l-4.922,8.525v19.893l9.844-5.684V-142.95Z" transform="translate(-417.366 152.032)" fill="#c4c4cc"/><path d="M421.419-141.733v14.209l5.274,3.045v-14.209Z" transform="translate(-420.364 155.687)" fill="#d7d7dc"/></g><g transform="translate(33.956 28.089)"><path d="M420.864-143.549v19.893l7.383,4.263v-19.893Z" transform="translate(-420.864 154.052)" fill="#b3d64e"/><path d="M428.247-135.247l4.922-8.525-7.383-4.263-4.922,8.525Z" transform="translate(-420.864 150.013)" fill="#f1f3f6"/><path d="M423.454-147.1v-1.978l7.383,4.263v1.978Z" transform="translate(-418.532 149.075)" fill="#eaecf6"/><path d="M429.671-145.792l-4.922,8.525v19.893l9.844-5.684V-142.95Z" transform="translate(-417.366 152.032)" fill="#c4c4cc"/><path d="M421.419-141.733v14.209l5.274,3.045v-14.209Z" transform="translate(-420.364 155.687)" fill="#d7d7dc"/></g><g transform="translate(50.49 19.378)"><path d="M420.864-143.549v19.893l7.383,4.263v-19.893Z" transform="translate(-420.864 154.052)" fill="#b3d64e"/><path d="M428.247-135.247l4.922-8.525-7.383-4.263-4.922,8.525Z" transform="translate(-420.864 150.013)" fill="#f1f3f6"/><path d="M423.454-147.1v-1.978l7.383,4.263v1.978Z" transform="translate(-418.532 149.075)" fill="#eaecf6"/><path d="M429.671-145.792l-4.922,8.525v19.893l9.844-5.684V-142.95Z" transform="translate(-417.366 152.032)" fill="#c4c4cc"/><path d="M421.419-141.733v14.209l5.274,3.045v-14.209Z" transform="translate(-420.364 155.687)" fill="#d7d7dc"/></g></g><path d="M378.973-7.221,601.167,121.063v38.01L378.975,30.789Z" transform="translate(-378.973 168.763)" fill="#d0e6f1"/><g transform="translate(192.641 240.981)"><path d="M248.575-107.2v7.6l4.938,2.851v-7.6Z" transform="translate(-248.155 111.148)" fill="#f4f8df"/><path d="M256.112-107.2l-4.938,2.875v7.579l4.938-2.851v-7.6Z" transform="translate(-245.815 111.148)" fill="#d0c4c0"/><path d="M248.575-104.087s1.646-.95,4.938.95v3.8l-4.938-2.851Z" transform="translate(-248.155 113.738)" fill="#fcd432"/><rect width="3.292" height="1.9" rx="0.5" transform="matrix(0.904, 0.427, -0.427, 0.904, 1.69, 6.343)" fill="#fcd432"/><g transform="translate(0 0)"><path d="M134.663-60.894l5.36-3.094,5.36,3.094-5.36,3.094Z" transform="translate(-134.663 64.609)" fill="#fcd432"/><path d="M134.663-61.22l5.36-3.094,5.36,3.094-5.36,3.094Z" transform="translate(-134.663 64.315)" fill="#fcd432"/><path d="M134.663-62.687l5.36,3.094v.851l-5.36-3.155Z" transform="translate(-134.663 65.781)" fill="#ddb203"/><path d="M137.483-59.592l5.36-3.094v.7l-5.36,3.214Z" transform="translate(-132.123 65.781)" fill="#ddb203"/></g></g><g transform="translate(133.464 188.948)"><g transform="translate(0 9.554)"><path d="M420.864-143.549v19.893l7.383,4.263v-19.893Z" transform="translate(-420.864 154.052)" fill="#e54a49"/><path d="M428.247-135.247l4.922-8.525-7.383-4.263-4.922,8.525Z" transform="translate(-420.864 150.013)" fill="#f1f3f6"/><path d="M423.454-147.1v-1.978l7.383,4.263v1.978Z" transform="translate(-418.532 149.075)" fill="#eaecf6"/><path d="M429.671-145.792l-4.922,8.525v19.893l9.844-5.684V-142.95Z" transform="translate(-417.366 152.032)" fill="#c4c4cc"/><path d="M421.419-141.733v14.209l5.274,3.045v-14.209Z" transform="translate(-420.364 155.687)" fill="#d7d7dc"/></g><g transform="translate(16.468 0)"><path d="M420.864-143.549v19.893l7.383,4.263v-19.893Z" transform="translate(-420.864 154.052)" fill="#e54a49"/><path d="M428.247-135.247l4.922-8.525-7.383-4.263-4.922,8.525Z" transform="translate(-420.864 150.013)" fill="#f1f3f6"/><path d="M423.454-147.1v-1.978l7.383,4.263v1.978Z" transform="translate(-418.532 149.075)" fill="#eaecf6"/><path d="M429.671-145.792l-4.922,8.525v19.893l9.844-5.684V-142.95Z" transform="translate(-417.366 152.032)" fill="#c4c4cc"/><path d="M421.419-141.733v14.209l5.274,3.045v-14.209Z" transform="translate(-420.364 155.687)" fill="#d7d7dc"/></g><g transform="translate(16.091 18.856)"><path d="M420.864-143.549v19.893l7.383,4.263v-19.893Z" transform="translate(-420.864 154.052)" fill="#e54a49"/><path d="M428.247-135.247l4.922-8.525-7.383-4.263-4.922,8.525Z" transform="translate(-420.864 150.013)" fill="#f1f3f6"/><path d="M423.454-147.1v-1.978l7.383,4.263v1.978Z" transform="translate(-418.532 149.075)" fill="#eaecf6"/><path d="M429.671-145.792l-4.922,8.525v19.893l9.844-5.684V-142.95Z" transform="translate(-417.366 152.032)" fill="#c4c4cc"/><path d="M421.419-141.733v14.209l5.274,3.045v-14.209Z" transform="translate(-420.364 155.687)" fill="#d7d7dc"/></g><g transform="translate(32.559 9.303)"><path d="M420.864-143.549v19.893l7.383,4.263v-19.893Z" transform="translate(-420.864 154.052)" fill="#e54a49"/><path d="M428.247-135.247l4.922-8.525-7.383-4.263-4.922,8.525Z" transform="translate(-420.864 150.013)" fill="#f1f3f6"/><path d="M423.454-147.1v-1.978l7.383,4.263v1.978Z" transform="translate(-418.532 149.075)" fill="#eaecf6"/><path d="M429.671-145.792l-4.922,8.525v19.893l9.844-5.684V-142.95Z" transform="translate(-417.366 152.032)" fill="#c4c4cc"/><path d="M421.419-141.733v14.209l5.274,3.045v-14.209Z" transform="translate(-420.364 155.687)" fill="#d7d7dc"/></g><g transform="translate(32.269 28.99)"><path d="M420.864-143.549v19.893l7.383,4.263v-19.893Z" transform="translate(-420.864 154.052)" fill="#e54a49"/><path d="M428.247-135.247l4.922-8.525-7.383-4.263-4.922,8.525Z" transform="translate(-420.864 150.013)" fill="#f1f3f6"/><path d="M423.454-147.1v-1.978l7.383,4.263v1.978Z" transform="translate(-418.532 149.075)" fill="#eaecf6"/><path d="M429.671-145.792l-4.922,8.525v19.893l9.844-5.684V-142.95Z" transform="translate(-417.366 152.032)" fill="#c4c4cc"/><path d="M421.419-141.733v14.209l5.274,3.045v-14.209Z" transform="translate(-420.364 155.687)" fill="#d7d7dc"/></g><g transform="translate(48.737 19.436)"><path d="M420.864-143.549v19.893l7.383,4.263v-19.893Z" transform="translate(-420.864 154.052)" fill="#e54a49"/><path d="M428.247-135.247l4.922-8.525-7.383-4.263-4.922,8.525Z" transform="translate(-420.864 150.013)" fill="#f1f3f6"/><path d="M423.454-147.1v-1.978l7.383,4.263v1.978Z" transform="translate(-418.532 149.075)" fill="#eaecf6"/><path d="M429.671-145.792l-4.922,8.525v19.893l9.844-5.684V-142.95Z" transform="translate(-417.366 152.032)" fill="#c4c4cc"/><path d="M421.419-141.733v14.209l5.274,3.045v-14.209Z" transform="translate(-420.364 155.687)" fill="#d7d7dc"/></g></g><g transform="translate(183.841 246.324)"><path d="M248.575-107.2v7.6l4.938,2.851v-7.6Z" transform="translate(-248.155 111.148)" fill="#f4f8df"/><path d="M256.112-107.2l-4.938,2.875v7.579l4.938-2.851v-7.6Z" transform="translate(-245.815 111.148)" fill="#d0c4c0"/><path d="M248.575-104.087s1.646-.95,4.938.95v3.8l-4.938-2.851Z" transform="translate(-248.155 113.738)" fill="#fcd432"/><rect width="3.292" height="1.9" rx="0.5" transform="matrix(0.904, 0.427, -0.427, 0.904, 1.69, 6.343)" fill="#fcd432"/><g transform="translate(0 0)"><path d="M134.663-60.894l5.36-3.094,5.36,3.094-5.36,3.094Z" transform="translate(-134.663 64.609)" fill="#fcd432"/><path d="M134.663-61.22l5.36-3.094,5.36,3.094-5.36,3.094Z" transform="translate(-134.663 64.315)" fill="#fcd432"/><path d="M134.663-62.687l5.36,3.094v.851l-5.36-3.155Z" transform="translate(-134.663 65.781)" fill="#ddb203"/><path d="M137.483-59.592l5.36-3.094v.7l-5.36,3.214Z" transform="translate(-132.123 65.781)" fill="#ddb203"/></g></g><path d="M497.619,39.635v9.5l37.855-21.856v-9.5Z" transform="translate(-272.133 191.275)" fill="#d0e6f1"/><path d="M533.134,25.789v-38.01l-32.918,19Z" transform="translate(-269.794 164.26)" fill="#d0e6f1"/><g transform="translate(209.171 231.427)"><path d="M248.575-107.2v7.6l4.938,2.851v-7.6Z" transform="translate(-248.155 111.148)" fill="#f4f8df"/><path d="M256.112-107.2l-4.938,2.875v7.579l4.938-2.851v-7.6Z" transform="translate(-245.815 111.148)" fill="#d0c4c0"/><path d="M248.575-104.087s1.646-.95,4.938.95v3.8l-4.938-2.851Z" transform="translate(-248.155 113.738)" fill="#fcd432"/><rect width="3.292" height="1.9" rx="0.5" transform="matrix(0.904, 0.427, -0.427, 0.904, 1.69, 6.343)" fill="#fcd432"/><g transform="translate(0 0)"><path d="M134.663-60.894l5.36-3.094,5.36,3.094-5.36,3.094Z" transform="translate(-134.663 64.609)" fill="#fcd432"/><path d="M134.663-61.22l5.36-3.094,5.36,3.094-5.36,3.094Z" transform="translate(-134.663 64.315)" fill="#fcd432"/><path d="M134.663-62.687l5.36,3.094v.851l-5.36-3.155Z" transform="translate(-134.663 65.781)" fill="#ddb203"/><path d="M137.483-59.592l5.36-3.094v.7l-5.36,3.214Z" transform="translate(-132.123 65.781)" fill="#ddb203"/></g></g><g transform="translate(0 71.268)"><path d="M361.146-145.749l-49.376,28.507L533.962,11.042l57.606-33.259L369.375-150.5Z" transform="translate(-311.769 150.5)" fill="#fdfffb"/><path d="M311.769-133v9.5L533.961,4.786v-9.5Z" transform="translate(-311.769 166.259)" fill="#d0e6f1"/></g><g transform="translate(20.619 52.679)"><g transform="translate(0 7.538)"><g transform="translate(0.03)"><path d="M382.5-393.464a3.178,3.178,0,0,0-1.843.444s-.027.145-.03.154l-.011-.051a3.849,3.849,0,0,0-2.495-.442v7.065s.5,3.606-1.8,5a3.3,3.3,0,0,0-1.8,3.459v24.8s-.6,3.974,6.986,3.312a2.075,2.075,0,0,0,.263-.047c5.429-.162,4.965-3.368,4.965-3.368v-24.8a3.3,3.3,0,0,0-1.8-3.459c-2.3-1.4-1.8-5-1.8-5v-7.065c-.237-.009-.454-.009-.652,0Z" transform="translate(-374.481 397.254)" fill="#29705c"/><g transform="translate(3.515 0)"><path d="M65.849-64.085a4.66,4.66,0,0,0-1.833.4s-.7.346-.8.822h0v0a.532.532,0,0,0,0,.207v2.1a.532.532,0,0,0,0,.207v.006h0c.05.238.27.5.795.757a4.428,4.428,0,0,0,3.632,0s.635-.314.778-.757h0a.541.541,0,0,0,0-.341v-1.964a.541.541,0,0,0,0-.341v0h0c-.074-.22-.3-.457-.777-.694a3.922,3.922,0,0,0-1.8-.4Z" transform="translate(-63.21 64.087)" fill="#abb283"/><path d="M64.017-63.687a4.428,4.428,0,0,1,3.632,0c1.816.9,0,1.8,0,1.8a4.428,4.428,0,0,1-3.632,0C62.2-62.789,64.017-63.687,64.017-63.687Z" transform="translate(-63.209 64.086)" fill="#d9d6b4"/></g></g><g transform="translate(0 26.479)"><path d="M324.313-348.9s7.811,3.091,12.292-.7v9.42s-4,3.4-12.118.568Z" transform="translate(-324.313 349.609)" fill="#abb283"/></g><path d="M354.426-137.752l-.116,9.239s-5.939.246-8.211-.9v-9.325s5.559,1.94,8.327.99Z" transform="translate(-346.022 165.957)" fill="#dddcb4"/><rect width="2.711" height="9.652" rx="0.713" transform="translate(2.361 16.724)" fill="#d9d6b4" opacity="0.173"/></g><g transform="translate(14.261 0)"><g transform="translate(0.03)"><path d="M382.5-393.464a3.178,3.178,0,0,0-1.843.444s-.027.145-.03.154l-.011-.051a3.849,3.849,0,0,0-2.495-.442v7.065s.5,3.606-1.8,5a3.3,3.3,0,0,0-1.8,3.459v24.8s-.6,3.974,6.986,3.312a2.075,2.075,0,0,0,.263-.047c5.429-.162,4.965-3.368,4.965-3.368v-24.8a3.3,3.3,0,0,0-1.8-3.459c-2.3-1.4-1.8-5-1.8-5v-7.065c-.237-.009-.454-.009-.652,0Z" transform="translate(-374.481 397.254)" fill="#29705c"/><g transform="translate(3.515 0)"><path d="M65.849-64.085a4.66,4.66,0,0,0-1.833.4s-.7.346-.8.822h0v0a.532.532,0,0,0,0,.207v2.1a.532.532,0,0,0,0,.207v.006h0c.05.238.27.5.795.757a4.428,4.428,0,0,0,3.632,0s.635-.314.778-.757h0a.541.541,0,0,0,0-.341v-1.964a.541.541,0,0,0,0-.341v0h0c-.074-.22-.3-.457-.777-.694a3.922,3.922,0,0,0-1.8-.4Z" transform="translate(-63.21 64.087)" fill="#abb283"/><path d="M64.017-63.687a4.428,4.428,0,0,1,3.632,0c1.816.9,0,1.8,0,1.8a4.428,4.428,0,0,1-3.632,0C62.2-62.789,64.017-63.687,64.017-63.687Z" transform="translate(-63.209 64.086)" fill="#d9d6b4"/></g></g><g transform="translate(0 26.479)"><path d="M324.313-348.9s7.811,3.091,12.292-.7v9.42s-4,3.4-12.118.568Z" transform="translate(-324.313 349.609)" fill="#abb283"/></g><path d="M354.426-137.752l-.116,9.239s-5.939.246-8.211-.9v-9.325s5.559,1.94,8.327.99Z" transform="translate(-346.022 165.957)" fill="#dddcb4"/><rect width="2.711" height="9.652" rx="0.713" transform="translate(2.361 16.724)" fill="#d9d6b4" opacity="0.173"/></g><g transform="translate(15.167 17.868)"><g transform="translate(0.03 0)"><path d="M382.5-393.464a3.178,3.178,0,0,0-1.843.444s-.027.145-.03.154l-.011-.051a3.849,3.849,0,0,0-2.495-.442v7.065s.5,3.606-1.8,5a3.3,3.3,0,0,0-1.8,3.459v24.8s-.6,3.974,6.986,3.312a2.075,2.075,0,0,0,.263-.047c5.429-.162,4.965-3.368,4.965-3.368v-24.8a3.3,3.3,0,0,0-1.8-3.459c-2.3-1.4-1.8-5-1.8-5v-7.065c-.237-.009-.454-.009-.652,0Z" transform="translate(-374.481 397.254)" fill="#29705c"/><g transform="translate(3.515 0)"><path d="M65.849-64.085a4.66,4.66,0,0,0-1.833.4s-.7.346-.8.822h0v0a.532.532,0,0,0,0,.207v2.1a.532.532,0,0,0,0,.207v.006h0c.05.238.27.5.795.757a4.428,4.428,0,0,0,3.632,0s.635-.314.778-.757h0a.541.541,0,0,0,0-.341v-1.964a.541.541,0,0,0,0-.341v0h0c-.074-.22-.3-.457-.777-.694a3.922,3.922,0,0,0-1.8-.4Z" transform="translate(-63.21 64.087)" fill="#abb283"/><path d="M64.017-63.687a4.428,4.428,0,0,1,3.632,0c1.816.9,0,1.8,0,1.8a4.428,4.428,0,0,1-3.632,0C62.2-62.789,64.017-63.687,64.017-63.687Z" transform="translate(-63.209 64.086)" fill="#d9d6b4"/></g></g><g transform="translate(0 26.479)"><path d="M324.313-348.9s7.811,3.091,12.292-.7v9.42s-4,3.4-12.118.568Z" transform="translate(-324.313 349.609)" fill="#abb283"/></g><path d="M354.426-137.752l-.116,9.239s-5.939.246-8.211-.9v-9.325s5.559,1.94,8.327.99Z" transform="translate(-346.022 165.957)" fill="#dddcb4"/><rect width="2.711" height="9.652" rx="0.713" transform="translate(2.361 16.724)" fill="#d9d6b4" opacity="0.173"/></g><g transform="translate(29.428 10.33)"><g transform="translate(0.03 0)"><path d="M382.5-393.464a3.178,3.178,0,0,0-1.843.444s-.027.145-.03.154l-.011-.051a3.849,3.849,0,0,0-2.495-.442v7.065s.5,3.606-1.8,5a3.3,3.3,0,0,0-1.8,3.459v24.8s-.6,3.974,6.986,3.312a2.075,2.075,0,0,0,.263-.047c5.429-.162,4.965-3.368,4.965-3.368v-24.8a3.3,3.3,0,0,0-1.8-3.459c-2.3-1.4-1.8-5-1.8-5v-7.065c-.237-.009-.454-.009-.652,0Z" transform="translate(-374.481 397.254)" fill="#29705c"/><g transform="translate(3.515 0)"><path d="M65.849-64.085a4.66,4.66,0,0,0-1.833.4s-.7.346-.8.822h0v0a.532.532,0,0,0,0,.207v2.1a.532.532,0,0,0,0,.207v.006h0c.05.238.27.5.795.757a4.428,4.428,0,0,0,3.632,0s.635-.314.778-.757h0a.541.541,0,0,0,0-.341v-1.964a.541.541,0,0,0,0-.341v0h0c-.074-.22-.3-.457-.777-.694a3.922,3.922,0,0,0-1.8-.4Z" transform="translate(-63.21 64.087)" fill="#abb283"/><path d="M64.017-63.687a4.428,4.428,0,0,1,3.632,0c1.816.9,0,1.8,0,1.8a4.428,4.428,0,0,1-3.632,0C62.2-62.789,64.017-63.687,64.017-63.687Z" transform="translate(-63.209 64.086)" fill="#d9d6b4"/></g></g><g transform="translate(0 26.479)"><path d="M324.313-348.9s7.811,3.091,12.292-.7v9.42s-4,3.4-12.118.568Z" transform="translate(-324.313 349.609)" fill="#abb283"/></g><path d="M354.426-137.752l-.116,9.239s-5.939.246-8.211-.9v-9.325s5.559,1.94,8.327.99Z" transform="translate(-346.022 165.957)" fill="#dddcb4"/><rect width="2.711" height="9.652" rx="0.713" transform="translate(2.361 16.724)" fill="#d9d6b4" opacity="0.173"/></g></g><g transform="translate(52.181 72.71)"><g transform="translate(0 7.538)"><g transform="translate(0.03)"><path d="M382.5-393.464a3.178,3.178,0,0,0-1.843.444s-.027.145-.03.154l-.011-.051a3.849,3.849,0,0,0-2.495-.442v7.065s.5,3.606-1.8,5a3.3,3.3,0,0,0-1.8,3.459v24.8s-.6,3.974,6.986,3.312a2.075,2.075,0,0,0,.263-.047c5.429-.162,4.965-3.368,4.965-3.368v-24.8a3.3,3.3,0,0,0-1.8-3.459c-2.3-1.4-1.8-5-1.8-5v-7.065c-.237-.009-.454-.009-.652,0Z" transform="translate(-374.481 397.254)" fill="#29705c"/><g transform="translate(3.515 0)"><path d="M65.849-64.085a4.66,4.66,0,0,0-1.833.4s-.7.346-.8.822h0v0a.532.532,0,0,0,0,.207v2.1a.532.532,0,0,0,0,.207v.006h0c.05.238.27.5.795.757a4.428,4.428,0,0,0,3.632,0s.635-.314.778-.757h0a.541.541,0,0,0,0-.341v-1.964a.541.541,0,0,0,0-.341v0h0c-.074-.22-.3-.457-.777-.694a3.922,3.922,0,0,0-1.8-.4Z" transform="translate(-63.21 64.087)" fill="#abb283"/><path d="M64.017-63.687a4.428,4.428,0,0,1,3.632,0c1.816.9,0,1.8,0,1.8a4.428,4.428,0,0,1-3.632,0C62.2-62.789,64.017-63.687,64.017-63.687Z" transform="translate(-63.209 64.086)" fill="#d9d6b4"/></g></g><g transform="translate(0 26.479)"><path d="M324.313-348.9s7.811,3.091,12.292-.7v9.42s-4,3.4-12.118.568Z" transform="translate(-324.313 349.609)" fill="#abb283"/></g><path d="M354.426-137.752l-.116,9.239s-5.939.246-8.211-.9v-9.325s5.559,1.94,8.327.99Z" transform="translate(-346.022 165.957)" fill="#dddcb4"/><rect width="2.711" height="9.652" rx="0.713" transform="translate(2.361 16.724)" fill="#d9d6b4" opacity="0.173"/></g><g transform="translate(14.261 0)"><g transform="translate(0.03)"><path d="M382.5-393.464a3.178,3.178,0,0,0-1.843.444s-.027.145-.03.154l-.011-.051a3.849,3.849,0,0,0-2.495-.442v7.065s.5,3.606-1.8,5a3.3,3.3,0,0,0-1.8,3.459v24.8s-.6,3.974,6.986,3.312a2.075,2.075,0,0,0,.263-.047c5.429-.162,4.965-3.368,4.965-3.368v-24.8a3.3,3.3,0,0,0-1.8-3.459c-2.3-1.4-1.8-5-1.8-5v-7.065c-.237-.009-.454-.009-.652,0Z" transform="translate(-374.481 397.254)" fill="#29705c"/><g transform="translate(3.515 0)"><path d="M65.849-64.085a4.66,4.66,0,0,0-1.833.4s-.7.346-.8.822h0v0a.532.532,0,0,0,0,.207v2.1a.532.532,0,0,0,0,.207v.006h0c.05.238.27.5.795.757a4.428,4.428,0,0,0,3.632,0s.635-.314.778-.757h0a.541.541,0,0,0,0-.341v-1.964a.541.541,0,0,0,0-.341v0h0c-.074-.22-.3-.457-.777-.694a3.922,3.922,0,0,0-1.8-.4Z" transform="translate(-63.21 64.087)" fill="#abb283"/><path d="M64.017-63.687a4.428,4.428,0,0,1,3.632,0c1.816.9,0,1.8,0,1.8a4.428,4.428,0,0,1-3.632,0C62.2-62.789,64.017-63.687,64.017-63.687Z" transform="translate(-63.209 64.086)" fill="#d9d6b4"/></g></g><g transform="translate(0 26.479)"><path d="M324.313-348.9s7.811,3.091,12.292-.7v9.42s-4,3.4-12.118.568Z" transform="translate(-324.313 349.609)" fill="#abb283"/></g><path d="M354.426-137.752l-.116,9.239s-5.939.246-8.211-.9v-9.325s5.559,1.94,8.327.99Z" transform="translate(-346.022 165.957)" fill="#dddcb4"/><rect width="2.711" height="9.652" rx="0.713" transform="translate(2.361 16.724)" fill="#d9d6b4" opacity="0.173"/></g><g transform="translate(15.167 17.868)"><g transform="translate(0.03 0)"><path d="M382.5-393.464a3.178,3.178,0,0,0-1.843.444s-.027.145-.03.154l-.011-.051a3.849,3.849,0,0,0-2.495-.442v7.065s.5,3.606-1.8,5a3.3,3.3,0,0,0-1.8,3.459v24.8s-.6,3.974,6.986,3.312a2.075,2.075,0,0,0,.263-.047c5.429-.162,4.965-3.368,4.965-3.368v-24.8a3.3,3.3,0,0,0-1.8-3.459c-2.3-1.4-1.8-5-1.8-5v-7.065c-.237-.009-.454-.009-.652,0Z" transform="translate(-374.481 397.254)" fill="#29705c"/><g transform="translate(3.515 0)"><path d="M65.849-64.085a4.66,4.66,0,0,0-1.833.4s-.7.346-.8.822h0v0a.532.532,0,0,0,0,.207v2.1a.532.532,0,0,0,0,.207v.006h0c.05.238.27.5.795.757a4.428,4.428,0,0,0,3.632,0s.635-.314.778-.757h0a.541.541,0,0,0,0-.341v-1.964a.541.541,0,0,0,0-.341v0h0c-.074-.22-.3-.457-.777-.694a3.922,3.922,0,0,0-1.8-.4Z" transform="translate(-63.21 64.087)" fill="#abb283"/><path d="M64.017-63.687a4.428,4.428,0,0,1,3.632,0c1.816.9,0,1.8,0,1.8a4.428,4.428,0,0,1-3.632,0C62.2-62.789,64.017-63.687,64.017-63.687Z" transform="translate(-63.209 64.086)" fill="#d9d6b4"/></g></g><g transform="translate(0 26.479)"><path d="M324.313-348.9s7.811,3.091,12.292-.7v9.42s-4,3.4-12.118.568Z" transform="translate(-324.313 349.609)" fill="#abb283"/></g><path d="M354.426-137.752l-.116,9.239s-5.939.246-8.211-.9v-9.325s5.559,1.94,8.327.99Z" transform="translate(-346.022 165.957)" fill="#dddcb4"/><rect width="2.711" height="9.652" rx="0.713" transform="translate(2.361 16.724)" fill="#d9d6b4" opacity="0.173"/></g><g transform="translate(29.428 10.33)"><g transform="translate(0.03 0)"><path d="M382.5-393.464a3.178,3.178,0,0,0-1.843.444s-.027.145-.03.154l-.011-.051a3.849,3.849,0,0,0-2.495-.442v7.065s.5,3.606-1.8,5a3.3,3.3,0,0,0-1.8,3.459v24.8s-.6,3.974,6.986,3.312a2.075,2.075,0,0,0,.263-.047c5.429-.162,4.965-3.368,4.965-3.368v-24.8a3.3,3.3,0,0,0-1.8-3.459c-2.3-1.4-1.8-5-1.8-5v-7.065c-.237-.009-.454-.009-.652,0Z" transform="translate(-374.481 397.254)" fill="#29705c"/><g transform="translate(3.515 0)"><path d="M65.849-64.085a4.66,4.66,0,0,0-1.833.4s-.7.346-.8.822h0v0a.532.532,0,0,0,0,.207v2.1a.532.532,0,0,0,0,.207v.006h0c.05.238.27.5.795.757a4.428,4.428,0,0,0,3.632,0s.635-.314.778-.757h0a.541.541,0,0,0,0-.341v-1.964a.541.541,0,0,0,0-.341v0h0c-.074-.22-.3-.457-.777-.694a3.922,3.922,0,0,0-1.8-.4Z" transform="translate(-63.21 64.087)" fill="#abb283"/><path d="M64.017-63.687a4.428,4.428,0,0,1,3.632,0c1.816.9,0,1.8,0,1.8a4.428,4.428,0,0,1-3.632,0C62.2-62.789,64.017-63.687,64.017-63.687Z" transform="translate(-63.209 64.086)" fill="#d9d6b4"/></g></g><g transform="translate(0 26.479)"><path d="M324.313-348.9s7.811,3.091,12.292-.7v9.42s-4,3.4-12.118.568Z" transform="translate(-324.313 349.609)" fill="#abb283"/></g><path d="M354.426-137.752l-.116,9.239s-5.939.246-8.211-.9v-9.325s5.559,1.94,8.327.99Z" transform="translate(-346.022 165.957)" fill="#dddcb4"/><rect width="2.711" height="9.652" rx="0.713" transform="translate(2.361 16.724)" fill="#d9d6b4" opacity="0.173"/></g></g><g transform="translate(84.209 108.146)"><path d="M902.307-1488.221v19.866l-6.611-4.967v-19.866Z" transform="translate(-895.697 1508.086)" fill="#ccc"/><path d="M899.175-1488.221l6.611-4.966v19.866l-6.611,4.967Z" transform="translate(-892.564 1508.086)" fill="#ccc"/><path d="M895.7-1489.657l3.305-7.45,3.305,2.483v9.933Z" transform="translate(-895.697 1504.557)" fill="#ccc"/><path d="M899.175-1494.624l3.306-2.483,3.305,7.45-6.611,4.966Z" transform="translate(-892.564 1504.557)" fill="#ccc"/><path d="M900.741-1492.271v-4.967l-3.305-2.483v4.967Z" transform="translate(-894.13 1502.203)" fill="#ccc"/><path d="M899.175-1492.271l3.306-2.483v-4.967l-3.306,2.483Z" transform="translate(-892.564 1502.203)" fill="#ccc"/><path d="M897.436-1498.544l3.305,2.483,3.306-2.483-3.306-2.483Z" transform="translate(-894.13 1501.027)" fill="#ccc"/><path d="M897.264-1495.043l5.045,3.791v24.57l-6.611-4.966v-19.866Z" transform="translate(-895.695 1506.416)" fill="#fd5"/><path d="M899.175-1491.253l5.045-3.79,1.566,3.529v19.866l-6.611,4.966.031-19.888Z" transform="translate(-892.564 1506.415)" fill="#fd5"/></g><g transform="translate(100.565 98.901)"><path d="M902.307-1488.221v19.866l-6.611-4.967v-19.866Z" transform="translate(-895.697 1508.086)" fill="#ccc"/><path d="M899.175-1488.221l6.611-4.966v19.866l-6.611,4.967Z" transform="translate(-892.564 1508.086)" fill="#ccc"/><path d="M895.7-1489.657l3.305-7.45,3.305,2.483v9.933Z" transform="translate(-895.697 1504.557)" fill="#ccc"/><path d="M899.175-1494.624l3.306-2.483,3.305,7.45-6.611,4.966Z" transform="translate(-892.564 1504.557)" fill="#ccc"/><path d="M900.741-1492.271v-4.967l-3.305-2.483v4.967Z" transform="translate(-894.13 1502.203)" fill="#ccc"/><path d="M899.175-1492.271l3.306-2.483v-4.967l-3.306,2.483Z" transform="translate(-892.564 1502.203)" fill="#ccc"/><path d="M897.436-1498.544l3.305,2.483,3.306-2.483-3.306-2.483Z" transform="translate(-894.13 1501.027)" fill="#ccc"/><path d="M897.264-1495.043l5.045,3.791v24.57l-6.611-4.966v-19.866Z" transform="translate(-895.695 1506.416)" fill="#fd5"/><path d="M899.175-1491.253l5.045-3.79,1.566,3.529v19.866l-6.611,4.966.031-19.888Z" transform="translate(-892.564 1506.415)" fill="#fd5"/></g><g transform="translate(100.565 116.857)"><path d="M902.307-1488.221v19.866l-6.611-4.967v-19.866Z" transform="translate(-895.697 1508.086)" fill="#ccc"/><path d="M899.175-1488.221l6.611-4.966v19.866l-6.611,4.967Z" transform="translate(-892.564 1508.086)" fill="#ccc"/><path d="M895.7-1489.657l3.305-7.45,3.305,2.483v9.933Z" transform="translate(-895.697 1504.557)" fill="#ccc"/><path d="M899.175-1494.624l3.306-2.483,3.305,7.45-6.611,4.966Z" transform="translate(-892.564 1504.557)" fill="#ccc"/><path d="M900.741-1492.271v-4.967l-3.305-2.483v4.967Z" transform="translate(-894.13 1502.203)" fill="#ccc"/><path d="M899.175-1492.271l3.306-2.483v-4.967l-3.306,2.483Z" transform="translate(-892.564 1502.203)" fill="#ccc"/><path d="M897.436-1498.544l3.305,2.483,3.306-2.483-3.306-2.483Z" transform="translate(-894.13 1501.027)" fill="#ccc"/><path d="M897.264-1495.043l5.045,3.791v24.57l-6.611-4.966v-19.866Z" transform="translate(-895.695 1506.416)" fill="#fd5"/><path d="M899.175-1491.253l5.045-3.79,1.566,3.529v19.866l-6.611,4.966.031-19.888Z" transform="translate(-892.564 1506.415)" fill="#fd5"/></g><g transform="translate(116.921 107.612)"><path d="M902.307-1488.221v19.866l-6.611-4.967v-19.866Z" transform="translate(-895.697 1508.086)" fill="#ccc"/><path d="M899.175-1488.221l6.611-4.966v19.866l-6.611,4.967Z" transform="translate(-892.564 1508.086)" fill="#ccc"/><path d="M895.7-1489.657l3.305-7.45,3.305,2.483v9.933Z" transform="translate(-895.697 1504.557)" fill="#ccc"/><path d="M899.175-1494.624l3.306-2.483,3.305,7.45-6.611,4.966Z" transform="translate(-892.564 1504.557)" fill="#ccc"/><path d="M900.741-1492.271v-4.967l-3.305-2.483v4.967Z" transform="translate(-894.13 1502.203)" fill="#ccc"/><path d="M899.175-1492.271l3.306-2.483v-4.967l-3.306,2.483Z" transform="translate(-892.564 1502.203)" fill="#ccc"/><path d="M897.436-1498.544l3.305,2.483,3.306-2.483-3.306-2.483Z" transform="translate(-894.13 1501.027)" fill="#ccc"/><path d="M897.264-1495.043l5.045,3.791v24.57l-6.611-4.966v-19.866Z" transform="translate(-895.695 1506.416)" fill="#fd5"/><path d="M899.175-1491.253l5.045-3.79,1.566,3.529v19.866l-6.611,4.966.031-19.888Z" transform="translate(-892.564 1506.415)" fill="#fd5"/></g><g transform="translate(116.743 126.812)"><path d="M902.307-1488.221v19.866l-6.611-4.967v-19.866Z" transform="translate(-895.697 1508.086)" fill="#ccc"/><path d="M899.175-1488.221l6.611-4.966v19.866l-6.611,4.967Z" transform="translate(-892.564 1508.086)" fill="#ccc"/><path d="M895.7-1489.657l3.305-7.45,3.305,2.483v9.933Z" transform="translate(-895.697 1504.557)" fill="#ccc"/><path d="M899.175-1494.624l3.306-2.483,3.305,7.45-6.611,4.966Z" transform="translate(-892.564 1504.557)" fill="#ccc"/><path d="M900.741-1492.271v-4.967l-3.305-2.483v4.967Z" transform="translate(-894.13 1502.203)" fill="#ccc"/><path d="M899.175-1492.271l3.306-2.483v-4.967l-3.306,2.483Z" transform="translate(-892.564 1502.203)" fill="#ccc"/><path d="M897.436-1498.544l3.305,2.483,3.306-2.483-3.306-2.483Z" transform="translate(-894.13 1501.027)" fill="#ccc"/><path d="M897.264-1495.043l5.045,3.791v24.57l-6.611-4.966v-19.866Z" transform="translate(-895.695 1506.416)" fill="#fd5"/><path d="M899.175-1491.253l5.045-3.79,1.566,3.529v19.866l-6.611,4.966.031-19.888Z" transform="translate(-892.564 1506.415)" fill="#fd5"/></g><g transform="translate(133.099 117.568)"><path d="M902.307-1488.221v19.866l-6.611-4.967v-19.866Z" transform="translate(-895.697 1508.086)" fill="#ccc"/><path d="M899.175-1488.221l6.611-4.966v19.866l-6.611,4.967Z" transform="translate(-892.564 1508.086)" fill="#ccc"/><path d="M895.7-1489.657l3.305-7.45,3.305,2.483v9.933Z" transform="translate(-895.697 1504.557)" fill="#ccc"/><path d="M899.175-1494.624l3.306-2.483,3.305,7.45-6.611,4.966Z" transform="translate(-892.564 1504.557)" fill="#ccc"/><path d="M900.741-1492.271v-4.967l-3.305-2.483v4.967Z" transform="translate(-894.13 1502.203)" fill="#ccc"/><path d="M899.175-1492.271l3.306-2.483v-4.967l-3.306,2.483Z" transform="translate(-892.564 1502.203)" fill="#ccc"/><path d="M897.436-1498.544l3.305,2.483,3.306-2.483-3.306-2.483Z" transform="translate(-894.13 1501.027)" fill="#ccc"/><path d="M897.264-1495.043l5.045,3.791v24.57l-6.611-4.966v-19.866Z" transform="translate(-895.695 1506.416)" fill="#fd5"/><path d="M899.175-1491.253l5.045-3.79,1.566,3.529v19.866l-6.611,4.966.031-19.888Z" transform="translate(-892.564 1506.415)" fill="#fd5"/></g><g transform="translate(133.099 135.524)"><path d="M902.307-1488.221v19.866l-6.611-4.967v-19.866Z" transform="translate(-895.697 1508.086)" fill="#ccc"/><path d="M899.175-1488.221l6.611-4.966v19.866l-6.611,4.967Z" transform="translate(-892.564 1508.086)" fill="#ccc"/><path d="M895.7-1489.657l3.305-7.45,3.305,2.483v9.933Z" transform="translate(-895.697 1504.557)" fill="#ccc"/><path d="M899.175-1494.624l3.306-2.483,3.305,7.45-6.611,4.966Z" transform="translate(-892.564 1504.557)" fill="#ccc"/><path d="M900.741-1492.271v-4.967l-3.305-2.483v4.967Z" transform="translate(-894.13 1502.203)" fill="#ccc"/><path d="M899.175-1492.271l3.306-2.483v-4.967l-3.306,2.483Z" transform="translate(-892.564 1502.203)" fill="#ccc"/><path d="M897.436-1498.544l3.305,2.483,3.306-2.483-3.306-2.483Z" transform="translate(-894.13 1501.027)" fill="#ccc"/><path d="M897.264-1495.043l5.045,3.791v24.57l-6.611-4.966v-19.866Z" transform="translate(-895.695 1506.416)" fill="#fd5"/><path d="M899.175-1491.253l5.045-3.79,1.566,3.529v19.866l-6.611,4.966.031-19.888Z" transform="translate(-892.564 1506.415)" fill="#fd5"/></g><g transform="translate(149.455 126.279)"><path d="M902.307-1488.221v19.866l-6.611-4.967v-19.866Z" transform="translate(-895.697 1508.086)" fill="#ccc"/><path d="M899.175-1488.221l6.611-4.966v19.866l-6.611,4.967Z" transform="translate(-892.564 1508.086)" fill="#ccc"/><path d="M895.7-1489.657l3.305-7.45,3.305,2.483v9.933Z" transform="translate(-895.697 1504.557)" fill="#ccc"/><path d="M899.175-1494.624l3.306-2.483,3.305,7.45-6.611,4.966Z" transform="translate(-892.564 1504.557)" fill="#ccc"/><path d="M900.741-1492.271v-4.967l-3.305-2.483v4.967Z" transform="translate(-894.13 1502.203)" fill="#ccc"/><path d="M899.175-1492.271l3.306-2.483v-4.967l-3.306,2.483Z" transform="translate(-892.564 1502.203)" fill="#ccc"/><path d="M897.436-1498.544l3.305,2.483,3.306-2.483-3.306-2.483Z" transform="translate(-894.13 1501.027)" fill="#ccc"/><path d="M897.264-1495.043l5.045,3.791v24.57l-6.611-4.966v-19.866Z" transform="translate(-895.695 1506.416)" fill="#fd5"/><path d="M899.175-1491.253l5.045-3.79,1.566,3.529v19.866l-6.611,4.966.031-19.888Z" transform="translate(-892.564 1506.415)" fill="#fd5"/></g><g transform="translate(150.345 149.114)"><path d="M757.959-954.78v18.789l-8.167-4.7v-18.789Z" transform="translate(-749.792 973.569)" fill="#ccc"/><path d="M754.09-954.78l8.167-4.7v18.788l-8.167,4.7Z" transform="translate(-745.923 973.569)" fill="#ccc"/><path d="M749.793-956.138l4.083-7.046,4.084,2.349v9.394Z" transform="translate(-749.792 970.231)" fill="#ccc"/><path d="M754.09-960.835l4.084-2.349,4.083,7.046-8.167,4.7Z" transform="translate(-745.923 970.231)" fill="#ccc"/><path d="M756.025-958.61v-4.7l-4.083-2.349v4.7Z" transform="translate(-747.858 968.005)" fill="#ccc"/><path d="M754.09-958.61l4.084-2.349v-4.7l-4.084,2.349Z" transform="translate(-745.923 968.005)" fill="#ccc"/><path d="M751.942-964.543l4.083,2.349,4.084-2.349-4.084-2.349Z" transform="translate(-747.857 966.892)" fill="#ccc"/><path d="M751.727-961.232l6.233,3.585v23.238l-8.167-4.7v-18.788Z" transform="translate(-749.792 971.989)" fill="#bad340"/><path d="M754.09-957.648l6.233-3.585,1.934,3.337v18.789l-8.167,4.7.038-18.81Z" transform="translate(-745.923 971.989)" fill="#bad340"/></g><g transform="translate(167.234 138.981)"><path d="M757.959-954.78v18.789l-8.167-4.7v-18.789Z" transform="translate(-749.792 973.569)" fill="#ccc"/><path d="M754.09-954.78l8.167-4.7v18.788l-8.167,4.7Z" transform="translate(-745.923 973.569)" fill="#ccc"/><path d="M749.793-956.138l4.083-7.046,4.084,2.349v9.394Z" transform="translate(-749.792 970.231)" fill="#ccc"/><path d="M754.09-960.835l4.084-2.349,4.083,7.046-8.167,4.7Z" transform="translate(-745.923 970.231)" fill="#ccc"/><path d="M756.025-958.61v-4.7l-4.083-2.349v4.7Z" transform="translate(-747.858 968.005)" fill="#ccc"/><path d="M754.09-958.61l4.084-2.349v-4.7l-4.084,2.349Z" transform="translate(-745.923 968.005)" fill="#ccc"/><path d="M751.942-964.543l4.083,2.349,4.084-2.349-4.084-2.349Z" transform="translate(-747.857 966.892)" fill="#ccc"/><path d="M751.727-961.232l6.233,3.585v23.238l-8.167-4.7v-18.788Z" transform="translate(-749.792 971.989)" fill="#bad340"/><path d="M754.09-957.648l6.233-3.585,1.934,3.337v18.789l-8.167,4.7.038-18.81Z" transform="translate(-745.923 971.989)" fill="#bad340"/></g><g transform="translate(167.057 158.359)"><path d="M757.959-954.78v18.789l-8.167-4.7v-18.789Z" transform="translate(-749.792 973.569)" fill="#ccc"/><path d="M754.09-954.78l8.167-4.7v18.788l-8.167,4.7Z" transform="translate(-745.923 973.569)" fill="#ccc"/><path d="M749.793-956.138l4.083-7.046,4.084,2.349v9.394Z" transform="translate(-749.792 970.231)" fill="#ccc"/><path d="M754.09-960.835l4.084-2.349,4.083,7.046-8.167,4.7Z" transform="translate(-745.923 970.231)" fill="#ccc"/><path d="M756.025-958.61v-4.7l-4.083-2.349v4.7Z" transform="translate(-747.858 968.005)" fill="#ccc"/><path d="M754.09-958.61l4.084-2.349v-4.7l-4.084,2.349Z" transform="translate(-745.923 968.005)" fill="#ccc"/><path d="M751.942-964.543l4.083,2.349,4.084-2.349-4.084-2.349Z" transform="translate(-747.857 966.892)" fill="#ccc"/><path d="M751.727-961.232l6.233,3.585v23.238l-8.167-4.7v-18.788Z" transform="translate(-749.792 971.989)" fill="#bad340"/><path d="M754.09-957.648l6.233-3.585,1.934,3.337v18.789l-8.167,4.7.038-18.81Z" transform="translate(-745.923 971.989)" fill="#bad340"/></g><g transform="translate(183.946 148.225)"><path d="M757.959-954.78v18.789l-8.167-4.7v-18.789Z" transform="translate(-749.792 973.569)" fill="#ccc"/><path d="M754.09-954.78l8.167-4.7v18.788l-8.167,4.7Z" transform="translate(-745.923 973.569)" fill="#ccc"/><path d="M749.793-956.138l4.083-7.046,4.084,2.349v9.394Z" transform="translate(-749.792 970.231)" fill="#ccc"/><path d="M754.09-960.835l4.084-2.349,4.083,7.046-8.167,4.7Z" transform="translate(-745.923 970.231)" fill="#ccc"/><path d="M756.025-958.61v-4.7l-4.083-2.349v4.7Z" transform="translate(-747.858 968.005)" fill="#ccc"/><path d="M754.09-958.61l4.084-2.349v-4.7l-4.084,2.349Z" transform="translate(-745.923 968.005)" fill="#ccc"/><path d="M751.942-964.543l4.083,2.349,4.084-2.349-4.084-2.349Z" transform="translate(-747.857 966.892)" fill="#ccc"/><path d="M751.727-961.232l6.233,3.585v23.238l-8.167-4.7v-18.788Z" transform="translate(-749.792 971.989)" fill="#bad340"/><path d="M754.09-957.648l6.233-3.585,1.934,3.337v18.789l-8.167,4.7.038-18.81Z" transform="translate(-745.923 971.989)" fill="#bad340"/></g><g transform="translate(185.19 167.248)"><path d="M757.959-954.78v18.789l-8.167-4.7v-18.789Z" transform="translate(-749.792 973.569)" fill="#ccc"/><path d="M754.09-954.78l8.167-4.7v18.788l-8.167,4.7Z" transform="translate(-745.923 973.569)" fill="#ccc"/><path d="M749.793-956.138l4.083-7.046,4.084,2.349v9.394Z" transform="translate(-749.792 970.231)" fill="#ccc"/><path d="M754.09-960.835l4.084-2.349,4.083,7.046-8.167,4.7Z" transform="translate(-745.923 970.231)" fill="#ccc"/><path d="M756.025-958.61v-4.7l-4.083-2.349v4.7Z" transform="translate(-747.858 968.005)" fill="#ccc"/><path d="M754.09-958.61l4.084-2.349v-4.7l-4.084,2.349Z" transform="translate(-745.923 968.005)" fill="#ccc"/><path d="M751.942-964.543l4.083,2.349,4.084-2.349-4.084-2.349Z" transform="translate(-747.857 966.892)" fill="#ccc"/><path d="M751.727-961.232l6.233,3.585v23.238l-8.167-4.7v-18.788Z" transform="translate(-749.792 971.989)" fill="#bad340"/><path d="M754.09-957.648l6.233-3.585,1.934,3.337v18.789l-8.167,4.7.038-18.81Z" transform="translate(-745.923 971.989)" fill="#bad340"/></g><g transform="translate(202.079 157.114)"><path d="M757.959-954.78v18.789l-8.167-4.7v-18.789Z" transform="translate(-749.792 973.569)" fill="#ccc"/><path d="M754.09-954.78l8.167-4.7v18.788l-8.167,4.7Z" transform="translate(-745.923 973.569)" fill="#ccc"/><path d="M749.793-956.138l4.083-7.046,4.084,2.349v9.394Z" transform="translate(-749.792 970.231)" fill="#ccc"/><path d="M754.09-960.835l4.084-2.349,4.083,7.046-8.167,4.7Z" transform="translate(-745.923 970.231)" fill="#ccc"/><path d="M756.025-958.61v-4.7l-4.083-2.349v4.7Z" transform="translate(-747.858 968.005)" fill="#ccc"/><path d="M754.09-958.61l4.084-2.349v-4.7l-4.084,2.349Z" transform="translate(-745.923 968.005)" fill="#ccc"/><path d="M751.942-964.543l4.083,2.349,4.084-2.349-4.084-2.349Z" transform="translate(-747.857 966.892)" fill="#ccc"/><path d="M751.727-961.232l6.233,3.585v23.238l-8.167-4.7v-18.788Z" transform="translate(-749.792 971.989)" fill="#bad340"/><path d="M754.09-957.648l6.233-3.585,1.934,3.337v18.789l-8.167,4.7.038-18.81Z" transform="translate(-745.923 971.989)" fill="#bad340"/></g><g transform="translate(201.902 176.492)"><path d="M757.959-954.78v18.789l-8.167-4.7v-18.789Z" transform="translate(-749.792 973.569)" fill="#ccc"/><path d="M754.09-954.78l8.167-4.7v18.788l-8.167,4.7Z" transform="translate(-745.923 973.569)" fill="#ccc"/><path d="M749.793-956.138l4.083-7.046,4.084,2.349v9.394Z" transform="translate(-749.792 970.231)" fill="#ccc"/><path d="M754.09-960.835l4.084-2.349,4.083,7.046-8.167,4.7Z" transform="translate(-745.923 970.231)" fill="#ccc"/><path d="M756.025-958.61v-4.7l-4.083-2.349v4.7Z" transform="translate(-747.858 968.005)" fill="#ccc"/><path d="M754.09-958.61l4.084-2.349v-4.7l-4.084,2.349Z" transform="translate(-745.923 968.005)" fill="#ccc"/><path d="M751.942-964.543l4.083,2.349,4.084-2.349-4.084-2.349Z" transform="translate(-747.857 966.892)" fill="#ccc"/><path d="M751.727-961.232l6.233,3.585v23.238l-8.167-4.7v-18.788Z" transform="translate(-749.792 971.989)" fill="#bad340"/><path d="M754.09-957.648l6.233-3.585,1.934,3.337v18.789l-8.167,4.7.038-18.81Z" transform="translate(-745.923 971.989)" fill="#bad340"/></g><g transform="translate(218.791 166.359)"><path d="M757.959-954.78v18.789l-8.167-4.7v-18.789Z" transform="translate(-749.792 973.569)" fill="#ccc"/><path d="M754.09-954.78l8.167-4.7v18.788l-8.167,4.7Z" transform="translate(-745.923 973.569)" fill="#ccc"/><path d="M749.793-956.138l4.083-7.046,4.084,2.349v9.394Z" transform="translate(-749.792 970.231)" fill="#ccc"/><path d="M754.09-960.835l4.084-2.349,4.083,7.046-8.167,4.7Z" transform="translate(-745.923 970.231)" fill="#ccc"/><path d="M756.025-958.61v-4.7l-4.083-2.349v4.7Z" transform="translate(-747.858 968.005)" fill="#ccc"/><path d="M754.09-958.61l4.084-2.349v-4.7l-4.084,2.349Z" transform="translate(-745.923 968.005)" fill="#ccc"/><path d="M751.942-964.543l4.083,2.349,4.084-2.349-4.084-2.349Z" transform="translate(-747.857 966.892)" fill="#ccc"/><path d="M751.727-961.232l6.233,3.585v23.238l-8.167-4.7v-18.788Z" transform="translate(-749.792 971.989)" fill="#bad340"/><path d="M754.09-957.648l6.233-3.585,1.934,3.337v18.789l-8.167,4.7.038-18.81Z" transform="translate(-745.923 971.989)" fill="#bad340"/></g><g transform="translate(217.49 187.303)"><path d="M757.959-954.78v18.789l-8.167-4.7v-18.789Z" transform="translate(-749.792 973.569)" fill="#ccc"/><path d="M754.09-954.78l8.167-4.7v18.788l-8.167,4.7Z" transform="translate(-745.923 973.569)" fill="#ccc"/><path d="M749.793-956.138l4.083-7.046,4.084,2.349v9.394Z" transform="translate(-749.792 970.231)" fill="#ccc"/><path d="M754.09-960.835l4.084-2.349,4.083,7.046-8.167,4.7Z" transform="translate(-745.923 970.231)" fill="#ccc"/><path d="M756.025-958.61v-4.7l-4.083-2.349v4.7Z" transform="translate(-747.858 968.005)" fill="#ccc"/><path d="M754.09-958.61l4.084-2.349v-4.7l-4.084,2.349Z" transform="translate(-745.923 968.005)" fill="#ccc"/><path d="M751.942-964.543l4.083,2.349,4.084-2.349-4.084-2.349Z" transform="translate(-747.857 966.892)" fill="#ccc"/><path d="M751.727-961.232l6.233,3.585v23.238l-8.167-4.7v-18.788Z" transform="translate(-749.792 971.989)" fill="#bad340"/><path d="M754.09-957.648l6.233-3.585,1.934,3.337v18.789l-8.167,4.7.038-18.81Z" transform="translate(-745.923 971.989)" fill="#bad340"/></g><g transform="translate(234.379 177.17)"><path d="M757.959-954.78v18.789l-8.167-4.7v-18.789Z" transform="translate(-749.792 973.569)" fill="#ccc"/><path d="M754.09-954.78l8.167-4.7v18.788l-8.167,4.7Z" transform="translate(-745.923 973.569)" fill="#ccc"/><path d="M749.793-956.138l4.083-7.046,4.084,2.349v9.394Z" transform="translate(-749.792 970.231)" fill="#ccc"/><path d="M754.09-960.835l4.084-2.349,4.083,7.046-8.167,4.7Z" transform="translate(-745.923 970.231)" fill="#ccc"/><path d="M756.025-958.61v-4.7l-4.083-2.349v4.7Z" transform="translate(-747.858 968.005)" fill="#ccc"/><path d="M754.09-958.61l4.084-2.349v-4.7l-4.084,2.349Z" transform="translate(-745.923 968.005)" fill="#ccc"/><path d="M751.942-964.543l4.083,2.349,4.084-2.349-4.084-2.349Z" transform="translate(-747.857 966.892)" fill="#ccc"/><path d="M751.727-961.232l6.233,3.585v23.238l-8.167-4.7v-18.788Z" transform="translate(-749.792 971.989)" fill="#bad340"/><path d="M754.09-957.648l6.233-3.585,1.934,3.337v18.789l-8.167,4.7.038-18.81Z" transform="translate(-745.923 971.989)" fill="#bad340"/></g><path d="M378.973-72.221v9.5L601.167,65.565v-9.5Z" transform="translate(-378.973 110.231)" fill="#b2b5c4"/><path d="M378.973-54.211l65.835-38.01L667,36.063l-65.835,38.01Z" transform="translate(-378.973 92.221)" fill="#93db64"/><path d="M561.722-24.721,495.887,13.29V174.832l65.836-38.01ZM537.034-.965V56.051L499.178,77.906V20.891Zm0,66.517v47.512L499.178,134.92V87.408Z" transform="translate(-273.693 153.004)" fill="#c4c4cc"/><g transform="translate(201.063 236.078)"><path d="M248.575-107.2v7.6l4.938,2.851v-7.6Z" transform="translate(-248.155 111.148)" fill="#f4f8df"/><path d="M256.112-107.2l-4.938,2.875v7.579l4.938-2.851v-7.6Z" transform="translate(-245.815 111.148)" fill="#d0c4c0"/><path d="M248.575-104.087s1.646-.95,4.938.95v3.8l-4.938-2.851Z" transform="translate(-248.155 113.738)" fill="#fcd432"/><rect width="3.292" height="1.9" rx="0.5" transform="matrix(0.904, 0.427, -0.427, 0.904, 1.69, 6.343)" fill="#fcd432"/><g transform="translate(0 0)"><path d="M134.663-60.894l5.36-3.094,5.36,3.094-5.36,3.094Z" transform="translate(-134.663 64.609)" fill="#fcd432"/><path d="M134.663-61.22l5.36-3.094,5.36,3.094-5.36,3.094Z" transform="translate(-134.663 64.315)" fill="#fcd432"/><path d="M134.663-62.687l5.36,3.094v.851l-5.36-3.155Z" transform="translate(-134.663 65.781)" fill="#ddb203"/><path d="M137.483-59.592l5.36-3.094v.7l-5.36,3.214Z" transform="translate(-132.123 65.781)" fill="#ddb203"/></g></g><g transform="translate(192.641 240.981)"><path d="M248.575-107.2v7.6l4.938,2.851v-7.6Z" transform="translate(-248.155 111.148)" fill="#f4f8df"/><path d="M256.112-107.2l-4.938,2.875v7.579l4.938-2.851v-7.6Z" transform="translate(-245.815 111.148)" fill="#d0c4c0"/><path d="M248.575-104.087s1.646-.95,4.938.95v3.8l-4.938-2.851Z" transform="translate(-248.155 113.738)" fill="#fcd432"/><rect width="3.292" height="1.9" rx="0.5" transform="matrix(0.904, 0.427, -0.427, 0.904, 1.69, 6.343)" fill="#fcd432"/><g transform="translate(0 0)"><path d="M134.663-60.894l5.36-3.094,5.36,3.094-5.36,3.094Z" transform="translate(-134.663 64.609)" fill="#fcd432"/><path d="M134.663-61.22l5.36-3.094,5.36,3.094-5.36,3.094Z" transform="translate(-134.663 64.315)" fill="#fcd432"/><path d="M134.663-62.687l5.36,3.094v.851l-5.36-3.155Z" transform="translate(-134.663 65.781)" fill="#ddb203"/><path d="M137.483-59.592l5.36-3.094v.7l-5.36,3.214Z" transform="translate(-132.123 65.781)" fill="#ddb203"/></g></g><g transform="translate(183.841 246.324)"><path d="M248.575-107.2v7.6l4.938,2.851v-7.6Z" transform="translate(-248.155 111.148)" fill="#f4f8df"/><path d="M256.112-107.2l-4.938,2.875v7.579l4.938-2.851v-7.6Z" transform="translate(-245.815 111.148)" fill="#d0c4c0"/><path d="M248.575-104.087s1.646-.95,4.938.95v3.8l-4.938-2.851Z" transform="translate(-248.155 113.738)" fill="#fcd432"/><rect width="3.292" height="1.9" rx="0.5" transform="matrix(0.904, 0.427, -0.427, 0.904, 1.69, 6.343)" fill="#fcd432"/><g transform="translate(0 0)"><path d="M134.663-60.894l5.36-3.094,5.36,3.094-5.36,3.094Z" transform="translate(-134.663 64.609)" fill="#fcd432"/><path d="M134.663-61.22l5.36-3.094,5.36,3.094-5.36,3.094Z" transform="translate(-134.663 64.315)" fill="#fcd432"/><path d="M134.663-62.687l5.36,3.094v.851l-5.36-3.155Z" transform="translate(-134.663 65.781)" fill="#ddb203"/><path d="M137.483-59.592l5.36-3.094v.7l-5.36,3.214Z" transform="translate(-132.123 65.781)" fill="#ddb203"/></g></g></g></g><g transform="translate(130.045 109.083)"><path d="M276.9,108.566s1.224,7.141-6.937,6.223-16.935-17.343-16.935-17.343Z" transform="translate(-206.483 60.16)" fill="#030a12" stroke="#000" stroke-width="0.265"/><g transform="translate(24.561 76.688)"><path d="M-308.334-854.1s-4.761-2.741-.577,16.88,10.676,46.312,10.676,46.312,8.8,6.925,13.995,1.876c0,0-5.05-50.352-10.388-56.7,0,0,6.925-23.661,4.328-32.895s-20.343,15.149-20.343,15.149Z" transform="translate(331.971 880.718)" fill="#042848"/><path d="M-315.129-869.047s-3.265,16.935-4.9,21.424-4.9,10,5.1,25.3,16.731,26.729,16.731,26.729l12.65-5.713s-9.59-19.587-11.222-23.056-4.9-8.978-8.366-11.426,11.63-28.157,10.814-36.522-20.812,3.264-20.812,3.264Z" transform="translate(321.865 885.563)" fill="#05345e"/></g><g transform="translate(59.352 24.644)"><path d="M-312.354-907.566l7.447,14.487s-3.061,4.693-7.345,3.979S-312.354-907.566-312.354-907.566Z" transform="translate(319.496 907.566)" fill="#fe8300"/><path d="M-302.594-900s3.571,8.774,4.285,10.1,4.591,6.019.816,11.936-17.955,25.3-17.955,25.3l4.795-22.954,4.387-6.019-10.712-13.058Z" transform="translate(316.979 914.382)" fill="#f1c07d"/></g><g transform="translate(33.464 0)"><path d="M-329.561-834.062c1.53-4.387,1.938-33.87-1.428-47.948s13.107-20.258,13.107-20.258,11.53-5.654,15.1-5.96,9.947-.306,8.723,13.772-6.325,38.563-3.265,43.97c-17.955,18.771-32.238,16.425-32.238,16.425Z" transform="translate(331.442 932.402)" fill="#ffa722"/><g transform="translate(3.767 0)"><path d="M-324.137-902.2l-.036,2.669s-.108,1.262,1.443.794,8.981-4.076,9.2-4.761-1.443-5.915-1.443-5.915l-9.125,3.9Z" transform="translate(334.364 931.327)" fill="#f0c179"/><g transform="translate(0 0)"><path d="M-339.068-918.969l.361,2.994h.014c.022.5.336,7.387,1.368,9.01,1.071,1.683,1.581,8.672,2.142,9.182s-.2,6.019,9.13-1.327,2.6-18.923,2.6-18.923l-9.378,1.161.109-1.123Z" transform="translate(340.358 925.322)" fill="#ffdbaa"/><path d="M-339.181-920.68s0,3.03,8.368-.721,15.582,4.905,15.582,10.965-3.751,6.06-3.607,11.975c0,0-6.492,4.472-9.811-2.6s-4.184-7.358-4.04-1.443c0,0-3.607-11.253-5.771-12.552s-1.01-2.02-.721-5.627Z" transform="translate(339.747 922.312)" fill="#331201"/></g></g></g><g transform="translate(41.581 157.273)"><path d="M-295.633-837.672s-8.774,1.632-11.324,7.753-12.446,26.014,4.591,13.874c0,0,6.121-7.549,6.274-9.029s1.938-1.428,2.652-3.367,1.836-4.387,1.02-5.917-1.938-3.06-3.214-3.316Z" transform="translate(312.133 837.672)" fill="#041a2e"/><path d="M-293.152-836.193a3.5,3.5,0,0,0-3.061,1.326c-1.02,1.53-2.244,4.744-3.622,5.662s-9.539,6.784-10.916,11.681-.561,3.775-.51,4.03,11.426-1.173,15.2-13.415c0,0,6.223-6.733,2.908-9.284Z" transform="translate(312.661 838.996)" fill="#1d1e1e"/></g><path d="M250.866,69.3V81.649L247.3,79.59V67.237Z" transform="translate(-211.639 32.957)" fill="#84a027"/><path d="M237.918,69.187l2.139,35,14.264,4.941,11.411-4.941,9.985-12.353-3.566-3.706Zm5.683,7.2a1.415,1.415,0,0,1,.247.007c1.406.149,2.146,3.693,2.146,3.693l.936,13.039s.562,2.467-.727,2.639-2.424-2.144-2.424-2.144L242.452,78s-.008-1.546,1.149-1.617Zm10.36,5.678a1.38,1.38,0,0,1,.453.1c1.316.515,1.142,3.954,1.142,3.954l-2.364,12.175s-.076,2.407-1.361,2.218-1.8-2.613-1.8-2.613l2.633-14.638s.33-1.234,1.294-1.2Zm10.773,6.113a.864.864,0,0,1,.6.194,2.508,2.508,0,0,1,.542,3.093l-6.409,10.629s-1.138,2.914-2.543,1.4.375-4.451.375-4.451l4.478-7.225s1.541-3.546,2.96-3.636Z" transform="translate(-220.087 34.713)" fill="#de3a31"/><path d="M255.374,89.664l-10.7-6.176-14.264,8.235,24.962,14.412,9.272-11.118Z" transform="translate(-226.846 47.59)" fill="#ba1a1a"/><path d="M245.015,69.187l-14.977,8.647,4.327,2.5-4.327,8.208,4.992,17.706,13.551-7.823-1.426-10.706Z" transform="translate(-227.183 34.713)" fill="#f24137"/><path d="M249.176,93l17.83-10.294V80.237l-17.83,10.294Z" transform="translate(-209.949 44.663)" fill="#f05a49"/><path d="M272.075,81.537l-17.83,10.294-10.7,18.529,17.013-9.737Z" transform="translate(-215.018 45.834)" fill="#f95450"/><path d="M228.536,75.037l.6,4.506,7.567,4.369a1.083,1.083,0,0,1,.914-.339c.715.039,1.3.958,1.711,1.854l7.512,4.337c.126-.358.457-1.032,1.166-1.041a1.391,1.391,0,0,1,.457.077c.8.266,1.12,1.591,1.251,2.623l7.669,4.428c.525-.853,1.182-1.618,1.843-1.575a.893.893,0,0,1,.454.167,2.508,2.508,0,0,1,.7,3.061l-.031.058,5.614,3.242,1.8-3.119Z" transform="translate(-228.535 39.98)" fill="#c6322e"/><path d="M248.228,94.951l17.706-10.222,1.925-3.191-17.83,10.294Z" transform="translate(-210.803 45.834)" fill="#c6322e"/><path d="M237.917,77.531l17.83-10.294,3.566,2.059L241.483,79.59Z" transform="translate(-220.087 32.957)" fill="#acd360"/><path d="M246.365,68.321l-17.83,10.294,39.226,22.647,17.83-10.294Zm0,1.647,36.373,21-14.977,8.647-36.373-21Z" transform="translate(-228.536 33.932)" fill="#ff7b78"/><g transform="translate(22.144 35.243)"><path d="M-317.092-895.3s-2.04-9.692-9.386-5.611-5.2,13.058-1.326,24.994c5.3-.714,12.65-6.019,12.65-6.019Z" transform="translate(342.494 901.916)" fill="#febd57"/><path d="M-322.525-885.387l2.958,10s-7.447,16.017-9.182,22.24l-1.02,2.55s-5.407,4.489-7.447,9.692l1.428,5.1s4.285,1.02,11.528-4.8l.51-7.855s11.018-16.731,11.324-18.873,4.693-1.428,2.346-16.629l-.612-7.447a79.93,79.93,0,0,0-11.834,6.019Z" transform="translate(337.216 911.38)" fill="#ffdba7"/></g><g transform="matrix(0.981, -0.192, 0.192, 0.981, 7.47, 109.055)"><path d="M5.687,4.272V21.362L0,17.089V0Z" transform="translate(0 12.817)" fill="#ccc"/><path d="M0,4.272,5.687,0V17.089L0,21.362Z" transform="translate(5.687 12.817)" fill="#ccc"/><path d="M0,6.408,2.843,0,5.687,2.136v8.545Z" transform="translate(0 6.408)" fill="#ccc"/><path d="M0,2.136,2.844,0,5.687,6.408,0,10.681Z" transform="translate(5.687 6.408)" fill="#ccc"/><path d="M2.843,6.408V2.136L0,0V4.272Z" transform="translate(2.843 2.136)" fill="#ccc"/><path d="M0,6.408,2.844,4.272V0L0,2.136Z" transform="translate(5.687 2.136)" fill="#ccc"/><path d="M0,2.136,2.843,4.272,5.687,2.136,2.843,0Z" transform="translate(2.843)" fill="#ccc"/><path d="M1.347,0l4.34,3.26V24.4L0,20.125V3.035Z" transform="translate(0.003 9.783)" fill="#fd5"/><path d="M0,3.26,4.34,0,5.687,3.035V20.125L0,24.4.026,7.288Z" transform="translate(5.687 9.782)" fill="#fd5"/></g><path d="M228.536,75.037,232.1,101.8l24.962,14.412,10.7-18.529Zm9.081,8.536c1.412.077,2.331,3.579,2.331,3.579l1.6,12.974s.687,2.435-.592,2.673-2.53-2.018-2.53-2.018L236.3,85.252s-.1-1.756,1.312-1.679Zm10.388,5.15a1.391,1.391,0,0,1,.457.077c1.341.447,1.341,3.891,1.341,3.891l-1.743,12.279s.046,2.408-1.247,2.284-1.927-2.518-1.927-2.518l1.886-14.753s.267-1.249,1.232-1.261Zm11.221,5.554a.893.893,0,0,1,.454.167,2.508,2.508,0,0,1,.7,3.061l-5.861,10.941s-.989,2.968-2.469,1.524.149-4.464.149-4.464l4.105-7.443s1.458-3.882,2.924-3.785Z" transform="translate(-228.535 39.98)" fill="#dd3832"/><path d="M267.762,96.384v2.471L228.536,76.208V73.737Z" transform="translate(-228.536 38.81)" fill="#e23e37"/><path d="M241.484,87.066V74.713l-3.566-2.059V85.007Z" transform="translate(-220.087 37.834)" fill="#acd360"/></g><g transform="translate(358.251 344.315) rotate(180)"><path d="M23.872,6.3S25.1-.837,16.935.082,0,17.425,0,17.425Z" transform="translate(46.541 7.77)" fill="#030a12" stroke="#000" stroke-width="0.265"/><g transform="translate(24.561 12.586)"><path d="M2.308,66.912s-4.761,2.741-.577-16.88S12.408,3.719,12.408,3.719s8.8-6.925,13.995-1.876c0,0-5.05,50.352-10.388,56.7,0,0,6.925,23.661,4.328,32.895S0,76.289,0,76.289Z" transform="translate(21.328)" fill="#042848"/><path d="M6.736,73.453s-3.265-16.935-4.9-21.424-4.9-10,5.1-25.3S23.671,0,23.671,0l12.65,5.713S26.731,25.3,25.1,28.769,20.2,37.747,16.734,40.2s11.63,28.157,10.814,36.522S6.736,73.453,6.736,73.453Z" transform="translate(0 3.557)" fill="#05345e"/></g><g transform="translate(59.352 96.435)"><path d="M1.829,18.539,9.276,4.053S6.216-.64,1.931.074,1.829,18.539,1.829,18.539Z" transform="translate(5.313 43.182)" fill="#fe8300"/><path d="M14.384,47.336s3.571-8.774,4.285-10.1,4.591-6.019.816-11.936S1.53,0,1.53,0L6.325,22.954l4.387,6.019L0,42.031Z" fill="#f1c07d"/></g><path d="M1.882.094C3.412,4.481,3.82,33.964.454,48.042S13.561,68.3,13.561,68.3s11.53,5.654,15.1,5.96,9.947.306,8.723-13.772-6.325-38.563-3.265-43.97C16.164-2.253,1.882.094,1.882.094Z" transform="translate(33.465 84.361)" fill="red"/><path d="M.038,3.567,0,.9S-.107-.364,1.444.1s8.981,4.076,9.2,4.761S9.2,10.781,9.2,10.781L.074,6.885Z" transform="translate(47.421 150.105)" fill="#f0c179"/><path d="M0,23.647l.361-2.994H.375c.022-.5.335-7.387,1.368-9.01C2.815,9.96,3.325,2.971,3.886,2.461s-.2-6.019,9.13,1.327,2.6,18.924,2.6,18.924L6.24,21.551l.109,1.123Z" transform="translate(38.514 152.82)" fill="#ffdbaa"/><path d="M.566,23.614s0-3.03,8.368.721S24.516,19.43,24.516,13.37,20.764,7.311,20.909,1.4c0,0-6.492-4.473-9.811,2.6S6.914,11.35,7.058,5.435c0,0-3.607,11.253-5.771,12.552s-1.01,2.02-.721,5.627Z" transform="translate(37.232 157.552)" fill="#c87137"/><g transform="translate(41.581)"><path d="M16.5,25.479S7.726,23.847,5.175,17.726-7.271-8.289,9.766,3.851c0,0,6.121,7.549,6.274,9.029s1.938,1.428,2.652,3.367,1.836,4.387,1.02,5.917-1.938,3.06-3.214,3.316Z" transform="translate(0 0.048)" fill="#041a2e"/><path d="M18.394,22.725A3.5,3.5,0,0,1,15.334,21.4c-1.02-1.53-2.244-4.744-3.622-5.662S2.174,8.952.8,4.056.235.281.286.026,11.712,1.2,15.487,13.441c0,0,6.223,6.733,2.908,9.284Z" transform="translate(1.114)" fill="#1d1e1e"/></g><path d="M3.566,12.353V0L0,2.059V14.412Z" transform="translate(35.661 68.194)" fill="#84a027"/><path d="M0,39.941l2.139-35L16.4,0,27.815,4.941,37.8,17.294,34.233,21Zm5.683-7.2a1.415,1.415,0,0,0,.247-.007c1.406-.149,2.146-3.693,2.146-3.693L9.013,16s.562-2.467-.727-2.639-2.424,2.144-2.424,2.144L4.534,31.126s-.008,1.546,1.149,1.617Zm10.36-5.678a1.38,1.38,0,0,0,.453-.1c1.316-.515,1.142-3.954,1.142-3.954L15.274,10.835S15.2,8.428,13.913,8.617s-1.8,2.613-1.8,2.613l2.633,14.638s.33,1.234,1.294,1.2Zm10.773-6.113a.864.864,0,0,0,.6-.194,2.508,2.508,0,0,0,.542-3.093L21.545,7.038S20.407,4.123,19,5.641s.375,4.451.375,4.451l4.478,7.225s1.541,3.546,2.96,3.636Z" transform="translate(17.831 38.959)" fill="#de3a31"/><path d="M24.962,16.471l-10.7,6.176L0,14.412,24.962,0l9.272,11.118Z" transform="translate(3.566 29.076)" fill="#ba1a1a"/><path d="M14.977,37.059,0,28.412l4.327-2.5L0,17.706,4.992,0,18.543,7.823,17.117,18.529Z" transform="translate(2.854 41.842)" fill="#f24137"/><path d="M0,0,17.83,10.294v2.471L0,2.471Z" transform="translate(39.227 45.135)" fill="#f05a49"/><path d="M28.528,28.824,10.7,18.529,0,0,17.013,9.737Z" transform="translate(28.529 26.606)" fill="#f95450"/><path d="M0,25.767l.6-4.506,7.567-4.369a1.083,1.083,0,0,0,.914.339c.715-.039,1.3-.958,1.711-1.854L18.3,11.04c.126.358.457,1.032,1.166,1.041A1.391,1.391,0,0,0,19.927,12c.8-.266,1.12-1.591,1.251-2.623l7.669-4.428c.525.853,1.182,1.618,1.843,1.575a.893.893,0,0,0,.454-.167,2.508,2.508,0,0,0,.7-3.061l-.031-.058L37.425,0l1.8,3.119Z" transform="translate(0.002 42.016)" fill="#c6322e"/><path d="M0,0,17.706,10.222l1.925,3.191L1.8,3.119Z" transform="translate(37.425 42.016)" fill="#c6322e"/><path d="M0,2.059,17.83,12.353,21.4,10.294,3.566,0Z" transform="translate(17.83 70.253)" fill="#acd360"/><path d="M17.83,32.941,0,22.647,39.226,0l17.83,10.294Zm0-1.647,36.373-21L39.226,1.647l-36.373,21Z" transform="translate(0 47.606)" fill="#ff7b78"/><g transform="translate(22.144 71.914)"><path d="M14.263,19.384s-2.04,9.692-9.386,5.611S-.326,11.936,3.551,0C8.856.714,16.2,6.019,16.2,6.019Z" transform="translate(11.14 49.646)" fill="#ff8080"/><path d="M14.691,49.65l2.958-10S10.2,23.635,8.467,17.412l-1.02-2.55S2.04,10.373,0,5.17L1.428.069s4.285-1.02,11.528,4.8l.51,7.855S24.484,29.45,24.79,31.592s4.693,1.428,2.346,16.629l-.612,7.447A79.93,79.93,0,0,1,14.691,49.65Z" fill="#ffdba7"/></g><g transform="matrix(0.981, 0.192, -0.192, 0.981, 14.048, 40.204)"><path d="M5.687,17.089V0L0,4.272V21.362Z" transform="translate(0 0.002)" fill="#ccc"/><path d="M0,17.089l5.687,4.272V4.272L0,0Z" transform="translate(5.687 0.002)" fill="#ccc"/><path d="M0,4.272l2.843,6.408L5.687,8.545V0Z" transform="translate(0 17.091)" fill="#ccc"/><path d="M0,8.545l2.844,2.136L5.687,4.272,0,0Z" transform="translate(5.687 17.091)" fill="#ccc"/><path d="M2.843,0V4.272L0,6.408V2.136Z" transform="translate(2.843 25.636)" fill="#ccc"/><path d="M0,0,2.844,2.136V6.408L0,4.272Z" transform="translate(5.687 25.636)" fill="#ccc"/><path d="M0,2.136,2.843,0,5.687,2.136,2.843,4.272Z" transform="translate(2.843 29.908)" fill="#ccc"/><path d="M1.347,24.4l4.34-3.26V0L0,4.272V21.361Z" transform="translate(0.003)" fill="#fd5"/><path d="M0,21.136,4.34,24.4l1.347-3.035V4.272L0,0,.026,17.109Z" transform="translate(5.687 0.001)" fill="#fd5"/></g><path d="M0,41.177,3.566,14.412,28.528,0l10.7,18.529Zm9.081-8.536c1.412-.077,2.331-3.579,2.331-3.579l1.6-12.974s.687-2.435-.592-2.673-2.53,2.018-2.53,2.018L7.768,30.962s-.1,1.756,1.312,1.679Zm10.388-5.15a1.391,1.391,0,0,0,.457-.077c1.341-.447,1.341-3.891,1.341-3.891L19.525,11.242s.046-2.408-1.247-2.284-1.927,2.518-1.927,2.518L18.237,26.23s.267,1.249,1.232,1.261ZM30.69,21.937a.893.893,0,0,0,.454-.167,2.508,2.508,0,0,0,.7-3.061L25.981,7.768S24.992,4.8,23.512,6.244s.149,4.464.149,4.464l4.105,7.443s1.458,3.882,2.924,3.785Z" transform="translate(0.002 26.606)" fill="#dd3832"/><path d="M39.227,2.471V0L0,22.647v2.471Z" transform="translate(0 45.135)" fill="#e23e37"/><path d="M3.566,0V12.353L0,14.412V2.059Z" transform="translate(17.831 57.9)" fill="#acd360"/></g></g></g></svg>