<svg xmlns="http://www.w3.org/2000/svg" xmlns:xlink="http://www.w3.org/1999/xlink" width="232.548" height="394.498" viewBox="0 0 232.548 394.498"><defs><clipPath id="a"><rect width="225.766" height="390.617" fill="none"/></clipPath></defs><g transform="matrix(1, -0.017, 0.017, 1, 0, 3.94)" clip-path="url(#a)"><path d="M438.243,175.118a4.22,4.22,0,1,0,2.495,8.063l5.078-1.555,5.352,17.3-38.386,74.89a26.952,26.952,0,0,0-2.333,18.065l-.362.111,59.269,191.551a34.9,34.9,0,0,0,7.329,12.881l16.087,22.958.065-.1.012.014a21.4,21.4,0,0,0,1.4,1.767l.044.047a21.888,21.888,0,0,0,1.565,1.59l.078.067q.812.739,1.7,1.4l.156.11q.859.63,1.782,1.183l.224.124q.9.527,1.85.976l.312.134q.919.419,1.878.763.206.068.412.132.926.314,1.881.557.249.056.5.107.91.213,1.839.359.347.046.7.083.848.111,1.705.167.4.016.809.02.818.029,1.64.007.428-.022.856-.058.79-.046,1.578-.139.5-.071.991-.16.707-.109,1.409-.254,1.068-.229,2.117-.544t2.058-.734q.662-.272,1.309-.578.459-.2.91-.422.7-.364,1.384-.768.374-.21.741-.431.691-.442,1.352-.924.332-.229.657-.468.685-.532,1.331-1.107.258-.217.51-.44.69-.645,1.326-1.335.177-.181.35-.365.652-.734,1.24-1.513.135-.169.266-.339.6-.82,1.122-1.682.092-.142.182-.285.532-.9.978-1.842.058-.114.115-.228.45-.972.8-1.975l.067-.178q.361-1.043.615-2.109l.026-.1q.115-.559.2-1.12l7.4,10.563.065-.1.011.014a21.364,21.364,0,0,0,1.4,1.767l.045.048a21.9,21.9,0,0,0,1.565,1.59l.078.066q.812.739,1.7,1.4l.156.11q.859.63,1.782,1.183l.224.124q.9.527,1.85.976l.312.134q.919.419,1.878.763.205.068.412.132.926.314,1.881.557.25.056.5.107.91.213,1.839.359.347.046.7.083.848.111,1.705.167.4.016.809.02.819.029,1.64.007.428-.022.856-.058.79-.046,1.578-.139.5-.071.991-.16.707-.108,1.409-.254,1.068-.23,2.116-.544t2.058-.734q.662-.272,1.309-.578.459-.2.91-.422.7-.364,1.384-.768.374-.21.741-.431.691-.441,1.352-.924.332-.229.657-.468.685-.532,1.331-1.107.258-.217.51-.44.69-.645,1.326-1.335.177-.181.349-.365.652-.734,1.24-1.513.135-.169.267-.34.6-.82,1.122-1.682.092-.142.182-.285.532-.9.979-1.842.058-.114.115-.228.45-.972.805-1.975l.067-.178q.361-1.043.615-2.109l.027-.1a21.7,21.7,0,0,0,.4-2.191l.01-.065a21.3,21.3,0,0,0,.161-2.246v-.018l.111.047.162-13.952.044.047a21.868,21.868,0,0,0,1.565,1.59l.077.068q.812.739,1.7,1.4l.157.11q.859.63,1.782,1.183l.224.124q.9.526,1.85.976l.312.134q.919.419,1.878.763.206.068.412.132.926.315,1.881.557.25.056.5.107.91.213,1.839.359.347.046.7.083.848.111,1.705.167.4.017.809.02.818.029,1.64.007.428-.022.856-.058.79-.046,1.578-.139.5-.071.991-.16.707-.109,1.409-.254,1.068-.229,2.117-.544t2.058-.734q.662-.272,1.309-.578.459-.2.91-.422.7-.364,1.384-.768.374-.21.741-.431.692-.442,1.352-.924.332-.229.657-.468.685-.532,1.331-1.107.258-.217.51-.44.69-.645,1.326-1.335.177-.181.35-.365.652-.734,1.24-1.513.135-.169.266-.339.6-.82,1.122-1.682.092-.142.182-.285.532-.9.979-1.842l.115-.228q.45-.972.8-1.975.034-.089.067-.178.361-1.043.615-2.109l.025-.1a21.727,21.727,0,0,0,.4-2.191l.012-.064a21.368,21.368,0,0,0,.161-2.246c0-.006,0-.012,0-.018l.111.047.323-27.9a34.782,34.782,0,0,0-1.22-14.832L574.791,241.536l-.469.144a27.116,27.116,0,0,0-12.139-13.632l-74.071-40.442-5.352-17.3,4.8-1.471a4.22,4.22,0,1,0-2.495-8.063Z" transform="translate(-409.824 -138.277)" fill="rgba(198,253,255,0.5)"/><path d="M.571.916,42.542.779l-.079,24.48L.491,25.4Z" transform="matrix(0.956, -0.292, 0.292, 0.956, 23.718, 11.69)" fill="#5ca12d"/><path d="M4.177,3.793,177.4,3.23l-.59,181.535-173.221.563Z" transform="matrix(0.956, -0.292, 0.292, 0.956, -4.665, 151.244)" fill="#5ca12d"/><path d="M528.463,192.6c4.348,25.476,3.84,53.149-1.477,80.538-13.047,65.614-51.8,120.7-98.78,140.415l68.235-20.9c25.6-25.058,43.628-63.573,49.375-105.511,4.656-34.462.667-68.661-11.247-96.41Z" transform="translate(-377.89 -84.933)" fill="#fffcfc"/><path d="M7.423-.2l.988,0a7.784,7.784,0,0,1,7.705,7.756l.294,61.157A7.6,7.6,0,0,1,8.779,76.4l-.988,0A7.784,7.784,0,0,1,.085,68.639L-.208,7.482A7.6,7.6,0,0,1,7.423-.2Z" transform="matrix(0.883, 0.469, -0.469, 0.883, 41.636, 68.535)" fill="#fff"/><path d="M7.145.3,8.47.29a6.069,6.069,0,0,1,6.119,6.119l-.108,18.543a6.242,6.242,0,0,1-6.19,6.191l-1.324.008A6.069,6.069,0,0,1,.847,25.031L.955,6.488A6.242,6.242,0,0,1,7.145.3Z" transform="matrix(0.71, -0.704, 0.704, 0.71, 69.539, 361.861)" fill="#fff"/><path d="M7.7.281l.554,0a6.829,6.829,0,0,1,6.878,6.891l-.072,12.644A7.021,7.021,0,0,1,8.1,26.783l-.554,0A6.829,6.829,0,0,1,.669,19.895L.741,7.251A7.021,7.021,0,0,1,7.7.281Z" transform="translate(127.842 359.738) rotate(-40.114)" fill="#fff"/><path d="M7.145.3,8.47.29a6.069,6.069,0,0,1,6.119,6.119l-.108,18.543a6.242,6.242,0,0,1-6.19,6.191l-1.324.008A6.069,6.069,0,0,1,.847,25.031L.955,6.488A6.242,6.242,0,0,1,7.145.3Z" transform="matrix(0.71, -0.704, 0.704, 0.71, 168.28, 334.9)" fill="#fff"/></g></svg>