<svg xmlns="http://www.w3.org/2000/svg" width="542.525" height="620.52" viewBox="0 0 542.525 620.52">
  <g id="magnifier" transform="translate(-778.581 -892.988)">
    <g id="g217" transform="translate(965.844 1042.596)">
      <g id="g1640" transform="translate(0 0)">
        <path id="path936" d="M-33.94,9V29.738" transform="translate(37.667 113.649)" fill="none" stroke="#000" stroke-linecap="round" stroke-linejoin="round" stroke-width="5"/>
        <path id="path940" d="M-19.184,9V29.738" transform="translate(113.71 113.649)" fill="none" stroke="#000" stroke-linecap="round" stroke-linejoin="round" stroke-width="5"/>
        <path id="path932" d="M19.587-10.929l-51.67,47.063,16.608,59.34,46.134-2.046Z" transform="translate(47.236 10.929)" fill="none" stroke="#1a1a1a" stroke-width="5"/>
        <path id="path938" d="M-33.94,10.689h90.8" transform="translate(37.667 122.332)" fill="none" stroke="#000" stroke-linecap="round" stroke-linejoin="round" stroke-width="5"/>
        <g id="flowRoot999" transform="translate(0 151.208)">
          <path id="path1789" d="M-85.359,27.743h-.278l-13.478-9.581V15.4l13.756-9.6v5.614l-7.98,5.359,7.98,5.382Z" transform="translate(99.115 3.852)"/>
          <path id="path1791" d="M-78.814,37.217q0,3.317-3.294,3.317h-10.88q-3.225,0-3.225-3.317V28.843h5.336v7.029h6.727V21.907H-96.213l.58-17.677h16.563V8.985H-90.6l-.348,8.258h8.838q3.294,0,3.294,3.294Z" transform="translate(114.075 -4.23)"/>
          <path id="path1793" d="M-66.894,29.83H-72.16v-19l-4.988.093V29.83h-5.289v-19l-4.988.093V29.83h-5.312V6.4h5.312v.858q1.856-.3,3.688-.6A25.291,25.291,0,0,1-80,6.307q1.833,0,2.366,1.044,1.949-.3,3.9-.626a26.648,26.648,0,0,1,3.944-.418q2.9,0,2.9,2.853Z" transform="translate(131.987 6.475)"/>
          <path id="path1795" d="M-62.068,29.83h-5.266v-19l-4.988.093V29.83h-5.289v-19l-4.988.093V29.83h-5.312V6.4H-82.6v.858q1.856-.3,3.688-.6a25.29,25.29,0,0,1,3.735-.348q1.833,0,2.366,1.044,1.949-.3,3.9-.626a26.647,26.647,0,0,1,3.944-.418q2.9,0,2.9,2.853Z" transform="translate(156.855 6.475)"/>
        </g>
      </g>
    </g>
    <g id="g1652" transform="matrix(1, -0.007, 0.007, 1, 777.099, 894.914)">
      <ellipse id="path1605" cx="23.688" cy="25.649" rx="23.688" ry="25.649" transform="matrix(0.611, 0.791, -0.791, 0.611, 510.709, 553.436)" fill="#586778"/>
      <rect id="rect898" width="30.057" height="45.936" transform="translate(386.651 409.226) rotate(142.409)" fill="#586778"/>
      <rect id="rect896" width="51.607" height="134.973" rx="1.935" transform="translate(469.487 499.566) rotate(142.409)" fill="#34495e"/>
      <path id="path874" d="M76.516,40.74C162.369-25.355,285.547-9.337,351.642,76.516s50.077,209.031-35.776,275.126S106.835,401.72,40.74,315.867-9.337,106.835,76.516,40.74ZM95.635,65.58A164.836,164.836,0,1,0,326.8,95.639,164.835,164.835,0,0,0,95.635,65.58Z" transform="translate(34.981 34.98)" fill="#32465a"/>
      <path id="circle876" d="M69.349,36.924A177.806,177.806,0,1,1,36.924,286.281,177.807,177.807,0,0,1,69.349,36.924ZM77.262,47.2A164.836,164.836,0,1,0,308.429,77.261,164.835,164.835,0,0,0,77.262,47.2Z" transform="translate(53.357 53.354)" fill="#586778"/>
      <circle id="circle878" cx="164.835" cy="164.835" r="164.835" transform="translate(462.331 261.225) rotate(142.409)" fill="#5df" opacity="0.198"/>
      <circle id="circle886" cx="17.968" cy="17.968" r="17.968" transform="translate(243.032 103.723) rotate(142.409)" fill="#fff"/>
      <path id="path888" d="M0,0S59.868,12.225,92.736,93.321" transform="translate(271.602 113.384)" fill="none" stroke="#fff" stroke-linecap="round" stroke-linejoin="round" stroke-width="35"/>
      <rect id="rect890" width="51.658" height="214.434" transform="matrix(0.792, -0.61, 0.61, 0.792, 353.535, 433.63)" fill="#fc0"/>
      <path id="rect106" d="M11.122,0,0,8.542,131.19,178.428l10.989-8.439Z" transform="translate(383.341 402.114)" fill="#fefe7b"/>
    </g>
  </g>
</svg>
