<?xml version="1.0" encoding="UTF-8" standalone="no"?>
<svg
   xmlns:dc="http://purl.org/dc/elements/1.1/"
   xmlns:cc="http://creativecommons.org/ns#"
   xmlns:rdf="http://www.w3.org/1999/02/22-rdf-syntax-ns#"
   xmlns:svg="http://www.w3.org/2000/svg"
   xmlns="http://www.w3.org/2000/svg"
   xmlns:sodipodi="http://sodipodi.sourceforge.net/DTD/sodipodi-0.dtd"
   xmlns:inkscape="http://www.inkscape.org/namespaces/inkscape"
   height="512"
   viewBox="0 0 512 512"
   width="512"
   version="1.1"
   id="svg839"
   sodipodi:docname="pelican.svg"
   inkscape:version="0.92.3 (2405546, 2018-03-11)">
  <metadata
     id="metadata845">
    <rdf:RDF>
      <cc:Work
         rdf:about="">
        <dc:format>image/svg+xml</dc:format>
        <dc:type
           rdf:resource="http://purl.org/dc/dcmitype/StillImage" />
      </cc:Work>
    </rdf:RDF>
  </metadata>
  <defs
     id="defs843" />
  <sodipodi:namedview
     pagecolor="#ffffff"
     bordercolor="#666666"
     borderopacity="1"
     objecttolerance="10"
     gridtolerance="10"
     guidetolerance="10"
     inkscape:pageopacity="0"
     inkscape:pageshadow="2"
     inkscape:window-width="1920"
     inkscape:window-height="1001"
     id="namedview841"
     showgrid="false"
     inkscape:zoom="0.72949219"
     inkscape:cx="489.95871"
     inkscape:cy="210.25899"
     inkscape:window-x="-9"
     inkscape:window-y="-9"
     inkscape:window-maximized="1"
     inkscape:current-layer="svg839" />
  <path
     d="m67.755 248.927c1.343 1.751 2.764 3.43 4.245 5.051v-50.908l-27.934 15.41z"
     id="path815"
     style="fill:#4d4d4d"
     inkscape:export-filename="D:\Pictures\儲存的圖片\seabirds.png"
     inkscape:export-xdpi="214.339"
     inkscape:export-ydpi="214.339" />
  <path
     d="m37.24 203.973 34.76-19.176v-16.804l-38.709 20.185z"
     id="path817"
     style="fill:#4d4d4d"
     inkscape:export-filename="D:\Pictures\儲存的圖片\seabirds.png"
     inkscape:export-xdpi="214.339"
     inkscape:export-ydpi="214.339" />
  <path
     d="m144 248a8 8 0 0 1 8 8v64h16v-202.083l-80 41.733v160.35h16v-64a8 8 0 0 1 8-8z"
     id="path819"
     style="fill:#008000"
     inkscape:export-filename="D:\Pictures\儲存的圖片\seabirds.png"
     inkscape:export-xdpi="214.339"
     inkscape:export-ydpi="214.339" />
  <path
     d="m184 260.37c1.475-1.273 2.9-2.585 4.263-3.947l21.18-21.18 1.984-3.906 44.573-89.224v-40.561l-72 39.731z"
     id="path821"
     style="fill:#4d4d4d"
     inkscape:export-filename="D:\Pictures\儲存的圖片\seabirds.png"
     inkscape:export-xdpi="214.339"
     inkscape:export-ydpi="214.339" />
  <path
     d="m184 109.566v13.442l48.944-27.008h-22.98z"
     id="path823"
     style="fill:#4d4d4d"
     inkscape:export-filename="D:\Pictures\儲存的圖片\seabirds.png"
     inkscape:export-xdpi="214.339"
     inkscape:export-ydpi="214.339" />
  <path
     d="m40 80h160v-16h-120.733a31.887 31.887 0 0 1 -17.75-5.375l-4.642-3.093a16 16 0 0 0 -24.875 13.312v14.212l4.422-2.211a7.994 7.994 0 0 1 3.578-.845z"
     id="path825"
     style="fill:#4d4d4d"
     inkscape:export-filename="D:\Pictures\儲存的圖片\seabirds.png"
     inkscape:export-xdpi="214.339"
     inkscape:export-ydpi="214.339" />
  <path
     d="m280 293.861q0-2.933.262-5.861h-16.262a8 8 0 0 1 -8-8v-32a8.006 8.006 0 0 1 .843-3.575l37.44-74.96a15.656 15.656 0 0 0 1.717-7.145v-94.08a36.281 36.281 0 0 0 -36.24-36.24 49.944 49.944 0 0 0 -26.2 7.451 51.054 51.054 0 0 0 -17.56 18.539v22.01h48a8 8 0 0 1 8 8v56a7.994 7.994 0 0 1 -.844 3.575l-45.44 90.96a15.667 15.667 0 0 0 -1.716 7.145v66.72a87.6 87.6 0 0 0 87.6 87.6h65.364a227.214 227.214 0 0 1 -69.085-43.116 85.345 85.345 0 0 1 -27.879-63.023zm-24-229.861h-16v-16h16z"
     id="path827"
     style="fill:#4d4d4d"
     inkscape:export-filename="D:\Pictures\儲存的圖片\seabirds.png"
     inkscape:export-xdpi="214.339"
     inkscape:export-ydpi="214.339" />
  <path
     d="m456.4 342.209-68.957-83.733a50.717 50.717 0 0 0 -84.513 9.56l-1.571 3.143a50.976 50.976 0 0 0 -5.359 22.682 69.308 69.308 0 0 0 22.642 51.183 211.831 211.831 0 0 0 33.358 24.807v-57.851h16v66.557a210.341 210.341 0 0 0 22.621 9.472l-6.572-59.146 15.9-1.766 7.336 66.02a211.009 211.009 0 0 0 21.872 4.482l-12.92-51.679 15.522-3.88 14.358 57.433q7.3.5 14.671.507h18.9a103.772 103.772 0 0 0 -23.288-57.791z"
     id="path829"
     style="fill:#4d4d4d"
     inkscape:export-filename="D:\Pictures\儲存的圖片\seabirds.png"
     inkscape:export-xdpi="214.339"
     inkscape:export-ydpi="214.339" />
  <path
     d="m131.28 280c1.549 0 3.122-.057 4.72-.15v-15.85h-16v15.2a79.453 79.453 0 0 0 11.28.8z"
     id="path831"
     style="fill:#008000"
     inkscape:export-filename="D:\Pictures\儲存的圖片\seabirds.png"
     inkscape:export-xdpi="214.339"
     inkscape:export-ydpi="214.339" />
  <path
     d="m232 432h-80a23.735 23.735 0 0 0 -20.648 12.024 8 8 0 0 1 -6.914 3.976h-12.438v16h12.438a8 8 0 0 1 6.915 3.976 23.732 23.732 0 0 0 20.647 12.024h24v-24h16v24h16v-24h16v24h8a8.009 8.009 0 0 0 8-8v-32a8.009 8.009 0 0 0 -8-8z"
     id="path833"
     style="fill:#008000"
     inkscape:export-filename="D:\Pictures\儲存的圖片\seabirds.png"
     inkscape:export-xdpi="214.339"
     inkscape:export-ydpi="214.339" />
  <path
     d="m32 464v16h24.01l-.01-16z"
     id="path835"
     style="fill:#008000"
     inkscape:export-filename="D:\Pictures\儲存的圖片\seabirds.png"
     inkscape:export-xdpi="214.339"
     inkscape:export-ydpi="214.339" />
  <path
     d="m369.444 480 6.448-38.685a8.013 8.013 0 0 0 -.056-2.925l-5-24.334-15.672 3.221 4.7 22.876-6.641 39.847h-31.779l6.448-38.685a7.992 7.992 0 0 0 -.277-3.767l-6.333-19.667-15.23 4.905 5.737 17.816-6.566 39.398h-33.223v16h112v-16z"
     id="path837"
     style="fill:#4d4d4d"
     inkscape:export-filename="D:\Pictures\儲存的圖片\seabirds.png"
     inkscape:export-xdpi="214.339"
     inkscape:export-ydpi="214.339" />
</svg>
