<svg height="682pt" viewBox="-21 -30 682.66899 682" width="682pt" xmlns="http://www.w3.org/2000/svg"><path d="m125.3125 153.570312 104.101562 62.410157c4.300782 2.578125 10.265626 1.121093 12.867188-3.222657l79.15625-132.140624 53.625 89.5-32.367188 19.40625c-7.605468 4.558593-4.851562 16.582031 3.980469 17.375l131.035157 11.824218c.289062.027344.566406.039063.847656.039063 3.738281 0 7.148437-2.226563 8.628906-5.71875l51.367188-121.175781c3.460937-8.164063-5.84375-16.261719-13.453126-11.699219l-29.695312 17.800781-40.933594-71.441406c-9.472656-16.535156-27.152344-26.777344-46.136718-26.777344-57.363282 0-114.75 0-172.105469 0-18.675781 0-36.195313 9.953125-45.75 26.023438l-23.429688 39.367187c-6.152343 10.347656 9.953125 19.953125 16.117188 9.589844l23.425781-39.375c6.191406-10.402344 17.53125-16.855469 29.636719-16.855469h.167969l32.957031.164062c10.035156 1.414063 19.78125 8.046876 25.546875 17.667969l15.601562 26.042969-79.492187 132.699219-88.042969-52.785157 12.335938-20.730468c6.15625-10.347656-9.949219-19.953125-16.113282-9.589844l-17.117187 28.765625c-2.640625 4.441406-1.191407 10.179687 3.238281 12.835937zm179.664062-135.152343 103.113282.089843h.1875c12.332031 0 23.789062 6.628907 29.925781 17.34375l45.683594 79.738282c1.25 2.183594 3.332031 3.777344 5.765625 4.410156 2.4375.636719 5.03125.265625 7.1875-1.03125l13.214844-7.917969-37.464844 88.382813-95.582032-8.621094 15.730469-9.429688c4.441407-2.660156 5.886719-8.417968 3.222657-12.863281l-84.972657-141.820312c-1.777343-2.96875-3.796875-5.730469-6.011719-8.28125zm0 0"/><path d="m633.253906 349.394531-65.324218-116.746093c-2.519532-4.507813-8.21875-6.128907-12.734376-3.613282l-22.097656 12.285156c-10.523437 5.847657-1.421875 22.25 9.109375 16.386719l13.925781-7.746093 60.757813 108.585937c5.9375 10.617187 5.820313 23.75-.3125 34.257813l-18.734375 32.101562c-7.675781 9.796875-17.984375 12.234375-25.886719 12.375h-29.183593l-76.355469-137.433594 30.238281-16.816406c10.523438-5.847656 1.425781-22.246094-9.113281-16.386719l-38.429688 21.367188c-4.523437 2.515625-6.152343 8.222656-3.640625 12.75l75.851563 136.519531h-105.324219l-.613281-37.894531c-.140625-8.867188-11.933594-12.5-17.042969-5.246094l-75.761719 107.613281c-2.34375 3.328125-2.269531 7.792969.183594 11.039063l79.21875 105.097656c5.332031 7.082031 17.003906 3.070313 16.859375-5.796875l-.566406-34.636719 82.3125.261719h.171875c19.082031-.003906 36.796875-10.285156 46.222656-26.824219 28.640625-49.523437 56.964844-99.257812 85.785156-148.636719 9.46875-16.21875 9.652344-36.476562.484375-52.863281zm-132.496094 209.574219c-.035156 0-.074218 0-.109374 0l-91.867188-.285156c-2.488281 0-4.9375.996094-6.707031 2.785156-1.765625 1.792969-2.742188 4.21875-2.699219 6.738281l.25 15.410157-57.773438-76.648438 55.253907-78.492188.296875 18.335938c.082031 5.117188 4.253906 9.222656 9.375 9.222656h165.410156c2.890625-.046875 5.703125-.292968 8.421875-.726562l-49.890625 86.25c-6.125 10.746094-17.597656 17.410156-29.960938 17.410156zm0 0"/><path d="m282.328125 440.539062c-1.609375-1.609374-4.296875-2.730468-6.632813-2.730468l-153.996093.40625 48.929687-92.15625 33.320313 17.710937c7.828125 4.164063 16.710937-4.398437 12.832031-12.378906l-57.53125-118.371094c-1.777344-3.664062-5.71875-5.757812-9.757812-5.183593l-130.257813 18.554687c-8.78125 1.25-10.910156 13.398437-3.078125 17.558594l30.582031 16.257812-40.027343 71.957031c-9.3125 16.738282-8.902344 37.289063 1.042968 53.589844 28.273438 47.003906 56.507813 94.035156 84.820313 141.023438 11.074219 18.363281 27.195312 32.089844 49.785156 31.949218l48.636719-.273437c12.03125-.070313 11.96875-18.753906-.101563-18.753906l-48.636719.277343c-12.199218.105469-23.589843-6.382812-29.820312-16.835937l-16.878906-28.316406c-3.976563-9.335938-3.328125-21.109375 1.9375-31.023438l14.238281-26.808593 154.632813-.410157.273437 102.691407-17.542969.097656c-12.027344.066406-11.964844 18.753906.105469 18.753906l26.890625-.152344c5.167969-.027344 9.335938-4.230468 9.320312-9.402344l-.316406-121.410156c-.007812-2.488281-1.003906-4.871094-2.769531-6.621094zm-205.375 43.878907-53.164063-88.382813c-6.460937-10.589844-6.726562-23.910156-.691406-34.753906l44.671875-80.3125c1.21875-2.199219 1.511719-4.800781.796875-7.214844-.714844-2.414062-2.363281-4.441406-4.589844-5.625l-13.613281-7.234375 95.007813-13.53125 41.964844 86.339844-16.183594-8.605469c-2.203125-1.167968-4.769532-1.410156-7.148438-.683594-2.378906.726563-4.371094 2.367188-5.535156 4.566407l-77.53125 146.03125c-1.621094 3.046875-2.949219 6.199219-3.984375 9.40625zm0 0"/></svg>