<svg height="512pt" viewBox="-139 0 512 512" width="512pt" xmlns="http://www.w3.org/2000/svg"><path d="m219.03125 496.949219h-203.980469v-199.394531l11.125-22.25-11.125-17.804688v-37.664062h-15.050781v41.980468l8.941406 14.304688-8.941406 17.882812v217.996094h234.082031v-87.691406h-15.050781zm0 0"/><path d="m234.082031 144.472656-68.230469-49.996094v-21.941406h9.265626v-72.535156h-116.152344v72.535156h9.261718v21.941406l-68.226562 49.996094v55.195313h15.050781v-47.5625l68.226563-50v-29.570313h67.527344v29.574219l68.226562 49.996094v105.398437l-11.125 17.800782 11.125 22.253906v106.582031h15.050781v-110.136719l-8.941406-17.882812 8.941406-14.304688zm-74.015625-129.421875v41.933594h-86.054687v-41.933594zm0 0"/><path d="m75.207031 243.964844-3.21875-9.046875-14.179687 5.046875 11.449218 32.160156 32.160157-11.449219-5.046875-14.179687-6.734375 2.398437 27.433593-51.316406 17.441407 32.320313 13.246093-7.148438-30.75-56.976562zm0 0"/><path d="m109.527344 319.03125-5.96875 5.972656 10.640625 10.640625 24.136719-24.136719-24.136719-24.140624-10.640625 10.644531 5.96875 5.96875h-49.933594l12.917969-23.941407-13.246094-7.144531-24.894531 46.136719zm0 0"/><path d="m176.257812 238.441406-33.289062-7.5625-7.5625 33.289063 14.675781 3.332031 1.441407-6.339844 22.992187 42.820313h-32.527344v15.050781h57.691407l-36.59375-68.148438 9.835937 2.234376zm0 0"/><path d="m135.683594 427.71875h-15.050782v-15.050781h15.050782zm-25.082032 0h-15.050781v-15.050781h15.050781zm0 0"/></svg>