<svg xmlns="http://www.w3.org/2000/svg" width="1368.963" height="668.563" viewBox="0 0 1368.963 668.563">
  <g id="seaFloor" transform="translate(3.082 -3298.622)">
    <rect id="seafloor-2" data-name="seafloor" width="1368.963" height="302.703" transform="translate(-3.082 3663.272)" fill="#ccc"/>
    <g id="seaweedBack">
      <path id="Path_6" data-name="Path 6" d="M5976.216,4315.457,5992,4225.772l-37.667-113,21.882-78.923,48.207-112.225-10.613,112.225L5992,4094.624l32.422,33.963-16.982,60.5,16.982,118.691Z" transform="translate(-5837 -550.904)" fill="#979797"/>
      <path id="Path_8" data-name="Path 8" d="M5971.178,4224.784l12.151-69.037-29-86.986,16.844-60.752,37.108-86.387-8.17,86.387-16.788,46.785,24.958,26.144-13.072,46.569,13.072,91.365Z" transform="translate(-5633 -485.231)" fill="#979797"/>
    </g>
    <g id="fishEatFish" transform="translate(40.732 3301.667)">
      <path id="path826" d="M104.148,151.005S246.088-43.815,435.341,95.342L376.9,173.27l66.8,75.145s-144.723,130.808-350.675-50.1l-44.529,44.53L45.7,100.909Z" transform="translate(0 0)" fill="#FFCC00"/>
      <ellipse id="path828" cx="13.22" cy="11.828" rx="13.22" ry="11.828" transform="translate(346.281 93.951)" fill="#fff"/>
      <path id="path826-8" d="M108.777,92.3S161.224,20.312,231.153,71.73l-21.6,28.794,24.681,27.766s-53.475,48.333-129.575-18.511L88.21,126.234,87.181,73.787Z" transform="translate(390.441 75.148)" fill="#FFCC00"/>
      <ellipse id="path828-4" cx="4.885" cy="4.371" rx="4.885" ry="4.371" transform="translate(588.686 146.364)" fill="#fff"/>
      <circle id="path851" cx="11.316" cy="11.316" r="11.316" transform="translate(643.32 170.585)" fill="#FFCC00"/>
    </g>
    <path id="seaweedFront" d="M5983,4437.553l20.679-117.489-49.345-148.036L5983,4068.638l63.152-147.016-13.9,147.016-28.569,79.619,42.473,44.492L6023.906,4272l22.247,155.488Z" transform="translate(-5745 -575)" fill="#979797"/>
    <g id="seaweed">
      <path id="Path_9" data-name="Path 9" d="M5974.468,4284l14.524-82.521L5954.334,4097.5l20.134-72.619,44.357-103.261-9.766,103.261-20.066,55.923,29.833,31.25-15.626,55.666,15.626,109.211Z" transform="translate(-4776 -535.448)" fill="#979797"/>
      <path id="Path_10" data-name="Path 10" d="M5983,4437.553l20.679-117.489-49.345-148.036L5983,4068.638l63.152-147.016-13.9,147.016-28.569,79.619,42.473,44.492L6023.906,4272l22.247,155.488Z" transform="translate(-4889 -623)" fill="#979797"/>
      <path id="Path_11" data-name="Path 11" d="M5971.178,4224.784l12.151-69.037-29-86.986,16.844-60.752,37.108-86.387-8.17,86.387-16.788,46.785,24.958,26.144-13.072,46.569,13.072,91.365Z" transform="translate(-5012 -468.231)" fill="#979797"/>
    </g>
    <g id="layer1" transform="translate(0 3814.805)">
      <path id="path854" d="M0,226.1c288.846-1.025,863.668-117.427,1056.232-114.553S1365.7,153.222,1365.7,153.222V263.875H0Z" transform="translate(0 -111.495)" fill="#e4e4e4"/>
    </g>
  </g>
</svg>
