<svg xmlns="http://www.w3.org/2000/svg" width="447.43" height="224.006" viewBox="0 0 447.43 224.006">
  <g id="seal" transform="translate(-32 -143.994)">
    <path id="path847" d="M120,200H107.777a49.618,49.618,0,0,0-44.621,27.578A8,8,0,0,1,56,232a24,24,0,0,0,0,48h64Zm-16,32H80V216h24Z" fill="#333"/>
    <path id="path849" d="M136,200h16v80H136Z" fill="green"/>
    <path id="path851" d="M416,232v16h24v16H416a16.019,16.019,0,0,0,16,16h47.43A56.088,56.088,0,0,0,424,232Z" fill="#333"/>
    <path id="path853" d="M416,312h24v16H416v16h8a56.088,56.088,0,0,0,55.43-48H432a16.019,16.019,0,0,0-16,16Z" fill="#333"/>
    <path id="path855" d="M408,216h16a71.513,71.513,0,0,1,25.961,4.919,89.964,89.964,0,0,0-23.695-15.6l-13.516-6.008a7.815,7.815,0,0,1-1.336-.757l-38.141-26.7a154.076,154.076,0,0,0-189.839,10.274L168,195.632V280H277.578a10.422,10.422,0,0,0,8.672-16.2A35.4,35.4,0,0,0,256.734,248H216V232h10.394A25.215,25.215,0,0,0,208,224V208a41.157,41.157,0,0,1,37.385,24h11.349a51.373,51.373,0,0,1,42.828,22.922A26.344,26.344,0,0,1,301.841,280h102.61A31.631,31.631,0,0,1,400,264V224a8,8,0,0,1,8-8Z" fill="#333"/>
    <path id="path857" d="M224,328H200a16.019,16.019,0,0,1-16-16v-4a12.013,12.013,0,0,0-12-12H96a12,12,0,0,0,0,24h24a16.019,16.019,0,0,1,16,16v12a20.021,20.021,0,0,0,20,20h68a20,20,0,0,0,0-40Z" fill="#1f1f1f"/>
  </g>
</svg>
