<svg xmlns="http://www.w3.org/2000/svg" xmlns:xlink="http://www.w3.org/1999/xlink" viewBox="0 0 650.33033 208.40492" height="787.67206" width="2457.9414">
  <defs>
    <path id="a" stroke-width=".133" d="M-1-1h2v2h-2z"/>
    <circle id="b" r="1" stroke-width=".133"/>
    <path id="c" d="M0-1.33l-1.33 2h2.66z" stroke-width=".133"/>
    <use height="100%" width="100%" xlink:href="#c" id="d" transform="scale(-1)"/>
    <use height="100%" width="100%" xlink:href="#a" id="e" transform="rotate(45)"/>
  </defs>
  <path d="M1.41232.00159C.47868.00959 0 .04759 0 .04759V208.4049h650.33033V.04759s-30.73882-1.62147-85.79631 30.45084c-55.05751 32.07237-73.76625 29.6668-79.91348 29.9341-6.14717.26724-30.46867-3.47473-79.6463-33.14164C361.94389 1.33229 333.1129-.05663 326.57748.0016c-.93364.008-1.41231.046-1.41231.046s-30.7388-1.62147-85.79632 30.45084c-55.05752 32.07237-73.76624 29.6668-79.91346 29.9341-6.14717.26724-30.46868-3.47473-79.6463-33.14164C36.77874 1.3323 7.94774-.05661 1.41232.00163z" fill="#00389d" fill-opacity=".33725"/>
</svg>
